<svg class="styles-module__logoIcon___ndb7x" width="126" height="12" fill="none" xmlns="http://www.w3.org/2000/svg"><path fill-rule="evenodd" clip-rule="evenodd" d="M11.426 4.733V9.31h1.031c.63 0 1.172-.218 1.629-.655.457-.437.685-.983.685-1.637 0-.671-.216-1.22-.647-1.647-.432-.426-.988-.64-1.667-.64h-1.03Zm1.031-2.169c1.375 0 2.513.43 3.415 1.287.9.857 1.351 1.913 1.351 3.168 0 1.255-.451 2.311-1.355 3.168-.903.858-2.04 1.286-3.41 1.286H8.98V2.564h3.477ZM21.522 8.84c.49.485 1.104.727 1.842.727.457 0 .889-.095 1.295-.286.407-.19.7-.383.88-.578l.271-.285 1.415 1.528c-.034.05-.083.115-.148.196-.065.08-.216.223-.453.428a4.848 4.848 0 0 1-.767.544c-.274.157-.637.3-1.087.426-.451.126-.92.189-1.406.189-1.4 0-2.587-.463-3.562-1.388-.974-.926-1.462-2.033-1.462-3.321 0-1.288.488-2.395 1.462-3.32.975-.927 2.162-1.39 3.562-1.39.482 0 .941.063 1.377.187.436.124.796.273 1.078.447.283.174.53.348.742.522.212.174.364.323.456.448l.145.18-1.484 1.528a5.358 5.358 0 0 0-.1-.127 2.788 2.788 0 0 0-.29-.274 3.77 3.77 0 0 0-.471-.348 2.755 2.755 0 0 0-.645-.273 2.767 2.767 0 0 0-.808-.121c-.738 0-1.352.241-1.842.724-.49.482-.736 1.088-.736 1.817 0 .729.246 1.336.736 1.82ZM34.122 8.84c.49.485 1.105.727 1.843.727.456 0 .888-.095 1.295-.286.407-.19.7-.383.88-.578l.27-.285 1.415 1.528c-.033.05-.083.115-.148.196-.065.08-.215.223-.452.428a4.844 4.844 0 0 1-.767.544c-.275.157-.638.3-1.088.426-.45.126-.92.189-1.405.189-1.4 0-2.588-.463-3.562-1.388-.975-.926-1.462-2.033-1.462-3.321 0-1.288.487-2.395 1.462-3.32.974-.927 2.162-1.39 3.562-1.39a5 5 0 0 1 1.377.187c.436.124.795.273 1.078.447.283.174.53.348.742.522.211.174.364.323.456.448l.144.18-1.483 1.528a5.68 5.68 0 0 0-.101-.127 2.775 2.775 0 0 0-.29-.274 3.768 3.768 0 0 0-.47-.348 2.752 2.752 0 0 0-.645-.273 2.766 2.766 0 0 0-.808-.121c-.738 0-1.352.241-1.843.724-.49.482-.735 1.088-.735 1.817 0 .729.245 1.336.735 1.82ZM43.75 8.84c.483.485 1.08.727 1.792.727.713 0 1.31-.242 1.79-.727.48-.484.72-1.091.72-1.82 0-.73-.24-1.335-.72-1.817-.48-.483-1.077-.724-1.79-.724-.712 0-1.31.241-1.792.724-.481.482-.723 1.088-.723 1.817 0 .729.242 1.336.723 1.82Zm5.348 1.5c-.975.926-2.16 1.389-3.559 1.389-1.398 0-2.584-.463-3.558-1.388-.975-.926-1.462-2.033-1.462-3.321 0-1.288.487-2.395 1.462-3.32.974-.927 2.16-1.39 3.558-1.39 1.398 0 2.584.463 3.559 1.39.975.925 1.462 2.032 1.462 3.32 0 1.288-.487 2.395-1.462 3.32ZM60.323 2.564v8.91H58.21l-3.873-4.965v4.964h-2.446V2.564h2.126l3.86 4.964V2.564h2.446ZM65.968 8.318a1.944 1.944 0 0 0-.601-.298 38.536 38.536 0 0 0-.817-.252c-.3-.089-.598-.202-.893-.338a4.172 4.172 0 0 1-.811-.491 2.113 2.113 0 0 1-.6-.77 2.555 2.555 0 0 1-.233-1.119c0-.729.32-1.368.959-1.916.639-.55 1.457-.823 2.455-.823.41 0 .798.044 1.163.133.365.089.663.196.896.32.233.124.437.247.613.37.176.122.297.23.365.326l.12.124-1.422 1.466a2.393 2.393 0 0 0-.185-.19c-.082-.076-.252-.18-.51-.313a1.694 1.694 0 0 0-.782-.199c-.277 0-.508.077-.692.23-.185.153-.277.332-.277.534 0 .162.078.302.233.42.155.118.355.217.6.298.245.08.516.166.811.255.296.089.594.202.893.338.3.137.572.3.817.491.246.19.446.447.601.77.155.324.233.696.233 1.119 0 .824-.33 1.518-.987 2.081-.658.563-1.532.845-2.622.845-.445 0-.873-.053-1.286-.159a4.26 4.26 0 0 1-1.019-.382 7.222 7.222 0 0 1-.707-.447 2.966 2.966 0 0 1-.453-.385l-.138-.155 1.415-1.46a.65.65 0 0 0 .09.1c.045.04.13.117.259.229.127.112.263.21.405.295.143.085.32.16.535.227.213.066.427.1.641.1.343 0 .623-.094.84-.28a.858.858 0 0 0 .323-.671c0-.162-.077-.303-.232-.423ZM75.553 9.05c.329-.343.493-.766.493-1.267V2.564h2.446v5.22c0 1.118-.39 2.055-1.17 2.81-.779.756-1.762 1.134-2.948 1.134s-2.17-.378-2.949-1.134c-.78-.755-1.17-1.692-1.17-2.81v-5.22h2.447v5.22c0 .5.164.923.493 1.267.33.343.722.515 1.179.515.457 0 .85-.172 1.179-.515ZM80.467 11.473V2.564h2.446v6.747h3.992v2.162h-6.438ZM94.11 2.564v2.169h-2.515v6.74H89.15v-6.74H86.64V2.564h7.47ZM95.412 11.475h2.446V2.566h-2.446v8.91ZM108.327 2.564v8.91h-2.113l-3.873-4.965v4.964h-2.446V2.564h2.126l3.86 4.964V2.564h2.446ZM111.262 10.34c-.974-.925-1.462-2.032-1.462-3.32 0-1.288.488-2.395 1.462-3.32.975-.927 2.162-1.39 3.562-1.39a5 5 0 0 1 1.377.187c.436.124.795.273 1.078.447.283.174.531.348.742.522.212.174.364.323.456.448l.145.18-1.484 1.528a5.036 5.036 0 0 0-.101-.127 2.7 2.7 0 0 0-.289-.274 3.81 3.81 0 0 0-.471-.348 2.772 2.772 0 0 0-.645-.273 2.764 2.764 0 0 0-.808-.121c-.738 0-1.352.241-1.842.724-.49.482-.736 1.088-.736 1.817 0 .729.246 1.336.736 1.82.49.485 1.104.727 1.842.727.31 0 .593-.047.849-.14.256-.093.436-.191.541-.295l.151-.136v-.957h-1.415V6.51h3.867v3.436c-.034.05-.091.115-.17.196-.08.08-.245.223-.497.428a5.232 5.232 0 0 1-.811.544c-.289.157-.66.3-1.113.426-.452.126-.92.189-1.402.189-1.4 0-2.587-.463-3.562-1.388ZM4.82 9.311c-.18.17-.413.255-.698.255H2.45V7.783h1.672c.285 0 .518.085.698.255.18.17.27.382.27.637 0 .254-.09.467-.27.636ZM2.45 4.487h1.432c.256 0 .465.077.627.23a.752.752 0 0 1 .242.57c0 .229-.08.42-.242.572a.876.876 0 0 1-.627.229H2.45v-1.6Zm4.976 3.551a2.07 2.07 0 0 0-.386-.597 2.6 2.6 0 0 0-.49-.388 6.504 6.504 0 0 0-.249-.147c.137-.094.26-.197.371-.31.143-.145.271-.343.387-.596.115-.253.173-.528.173-.826 0-.318-.065-.618-.193-.9-.13-.37-.377-.706-.741-1.008-.566-.468-1.312-.702-2.238-.702H.004v8.91h4.313c.96 0 1.747-.262 2.361-.783.614-.522.921-1.131.921-1.827 0-.298-.057-.574-.173-.826ZM123.229 3.656c-.612 0-1.108-.49-1.108-1.094 0-.605.496-1.095 1.108-1.095.612 0 1.108.49 1.108 1.095 0 .604-.496 1.094-1.108 1.094Zm0-3.547c-1.37 0-2.481 1.098-2.481 2.453 0 1.354 1.111 2.452 2.481 2.452 1.371 0 2.482-1.098 2.482-2.452 0-1.355-1.111-2.453-2.482-2.453Z" fill="#FF020E"></path></svg>