<svg xmlns="http://www.w3.org/2000/svg" width="154" height="28" viewBox="0 0 154 28" fill="none">
	<path fill-rule="evenodd" clip-rule="evenodd" d="M9.90623 8.23047C4.43517 8.23047 0 12.5467 0 17.8711C0 23.1955 4.43517 27.5118 9.90623 27.5118H26.5487C32.0198 27.5118 36.4549 23.1955 36.4549 17.8711C36.4549 12.5467 32.0198 8.23047 26.5487 8.23047H9.90623ZM21.0001 10.474C16.8421 10.474 13.4714 13.7851 13.4714 17.8695C13.4714 21.954 16.8421 25.2651 21.0001 25.2651H25.7551C29.9131 25.2651 33.2838 21.954 33.2838 17.8695C33.2838 13.7851 29.9131 10.474 25.7551 10.474H21.0001Z" fill="#4b5aff"/>
	<path d="M52.7063 13.1198C52.1612 13.3352 51.6664 13.6609 51.253 14.0765C50.8253 14.5558 50.484 15.1058 50.2443 15.7018C49.9762 16.3988 49.847 17.1416 49.8641 17.8882C49.8391 18.6345 49.961 19.3785 50.2228 20.0778C50.4545 20.6781 50.7908 21.2325 51.2162 21.7153C51.6341 22.1497 52.1372 22.4932 52.694 22.7242C53.2723 22.9512 53.8879 23.0677 54.5091 23.0676C55.0661 23.0745 55.6194 22.9767 56.1403 22.7794C56.5998 22.6216 57.0282 22.3851 57.4065 22.0802C57.7398 21.8018 58.0184 21.4638 58.2282 21.0836C58.3425 20.896 58.4449 20.7014 58.5348 20.5009C58.5936 20.3701 58.6992 20.2661 58.8309 20.2093C58.9626 20.1525 59.1107 20.1472 59.2462 20.1943L62.5299 21.3074C62.6744 21.3558 62.7939 21.4593 62.8623 21.5955C62.9306 21.7317 62.9423 21.8894 62.8947 22.0342C62.6905 22.6218 62.4167 23.1829 62.0792 23.7055C61.5929 24.4509 60.9881 25.1118 60.2886 25.6619C59.5305 26.2761 58.6758 26.76 57.7591 27.094C56.7042 27.4471 55.5969 27.6182 54.4846 27.6C53.2012 27.6119 51.9301 27.3495 50.7563 26.8303C49.6086 26.3716 48.5656 25.6852 47.6903 24.8125C46.8121 23.929 46.119 22.8792 45.6514 21.7245C45.1578 20.498 44.9129 19.1857 44.9309 17.8637C44.9285 16.5294 45.1868 15.2075 45.6912 13.9723C46.1441 12.8326 46.8239 11.7969 47.6893 10.9281C48.5548 10.0593 49.5878 9.37565 50.7257 8.91858C51.9032 8.44121 53.1652 8.20754 54.4355 8.23168C55.5692 8.22865 56.6958 8.40989 57.7714 8.76832C58.6764 9.11302 59.5241 9.59275 60.2855 10.1912C60.9782 10.7387 61.5652 11.4079 62.0178 12.1661C62.3462 12.7072 62.6136 13.2832 62.815 13.8833C62.8614 14.0277 62.8488 14.1846 62.7798 14.3196C62.7108 14.4547 62.5912 14.5569 62.4471 14.604L59.0745 15.7141C58.934 15.7593 58.7816 15.7493 58.6483 15.6861C58.515 15.6228 58.4108 15.5111 58.357 15.3737C58.1086 14.7744 57.7439 14.2303 57.2839 13.7729C56.6707 13.1382 55.7325 12.8008 54.5091 12.7947C53.8931 12.7889 53.2815 12.8991 52.7063 13.1198Z" fill="#000000"/>
	<path d="M64.3171 26.5089L64.449 0.811246C64.4494 0.735537 64.4647 0.660649 64.494 0.590857C64.5234 0.521065 64.5662 0.457736 64.62 0.404487C64.6738 0.351237 64.7376 0.30911 64.8076 0.28051C64.8777 0.25191 64.9528 0.237397 65.0285 0.237801L68.8089 0.2562C68.9613 0.258605 69.1066 0.320631 69.2138 0.428978C69.321 0.537324 69.3814 0.683364 69.3822 0.835778L69.3393 9.06946C69.338 9.17424 69.3655 9.27737 69.4187 9.36764C69.4719 9.45791 69.5488 9.53187 69.6411 9.58149C69.7334 9.63112 69.8375 9.6545 69.9421 9.64911C70.0467 9.64372 70.1479 9.60976 70.2346 9.55091C70.6527 9.25464 71.1153 9.02691 71.6051 8.87627C72.4625 8.56649 73.3671 8.40775 74.2787 8.40709C75.3234 8.38406 76.3602 8.59355 77.314 9.0204C78.1245 9.36198 78.8454 9.88575 79.4207 10.551C79.996 11.2163 80.4103 12.0053 80.6315 12.8566C80.8981 13.7732 81.0313 14.7234 81.027 15.6779L80.9688 26.5979C80.9688 26.6734 80.9538 26.7482 80.9248 26.818C80.8958 26.8878 80.8533 26.9511 80.7997 27.0044C80.7462 27.0577 80.6826 27.0999 80.6127 27.1285C80.5428 27.1572 80.4679 27.1717 80.3923 27.1713L76.6119 27.1529C76.5362 27.1525 76.4614 27.1372 76.3916 27.1078C76.3218 27.0785 76.2585 27.0357 76.2052 26.9819C76.152 26.9281 76.1099 26.8643 76.0813 26.7942C76.0527 26.7241 76.0382 26.649 76.0386 26.5733L76.0907 16.5058C76.1259 15.5786 75.8567 14.6653 75.3242 13.9054C74.7723 13.197 73.92 12.8597 72.7334 12.8536C72.2733 12.826 71.8129 12.9043 71.3877 13.0824C70.9625 13.2604 70.5838 13.5336 70.2806 13.8809C69.6674 14.5767 69.3218 15.4681 69.3056 16.3954L69.2535 26.5396C69.2518 26.6922 69.1901 26.8381 69.0816 26.9455C68.9731 27.0528 68.8266 27.113 68.674 27.113L64.8905 27.0885C64.8148 27.0881 64.7399 27.0728 64.6701 27.0434C64.6004 27.0141 64.537 26.9713 64.4838 26.9175C64.4306 26.8637 64.3884 26.7999 64.3598 26.7298C64.3313 26.6597 64.3167 26.5846 64.3171 26.5089Z" fill="#000000"/>
	<path d="M96.2266 9.24237C97.3589 9.71138 98.3889 10.3968 99.2589 11.2602C100.12 12.147 100.795 13.1969 101.246 14.3482C101.724 15.5909 101.956 16.9146 101.929 18.2458C101.947 19.566 101.701 20.8765 101.206 22.1004C100.745 23.248 100.058 24.291 99.1853 25.167C97.7796 26.484 96.0244 27.3682 94.1296 27.7141C92.2348 28.06 90.2804 27.8528 88.5002 27.1173C87.3688 26.6468 86.3399 25.9604 85.471 25.0964C84.6071 24.2117 83.9313 23.1613 83.4842 22.0084C83 20.7802 82.7665 19.4675 82.7974 18.1476C82.7844 16.8166 83.0312 15.4957 83.524 14.2592C83.983 13.1115 84.6693 12.0685 85.5415 11.1927C86.4188 10.3373 87.4552 9.66223 88.5922 9.20557C91.0564 8.27991 93.7752 8.2941 96.2297 9.24544L96.2266 9.24237ZM94.0804 23.0633C94.6452 22.8496 95.1538 22.5098 95.5674 22.0697C96.0047 21.6111 96.3483 21.0715 96.5792 20.4813C96.8619 19.7617 97.0034 18.9944 96.9962 18.2212C97.0127 17.4483 96.8783 16.6796 96.6006 15.9581C96.3765 15.3651 96.0391 14.8214 95.6073 14.3574C95.1969 13.9141 94.6917 13.5692 94.1294 13.3485C93.0134 12.8977 91.7672 12.8911 90.6464 13.3301C90.0836 13.5476 89.5758 13.8869 89.1594 14.3236C88.7214 14.7823 88.3785 15.3232 88.1507 15.9152C87.599 17.3709 87.5903 18.9767 88.1261 20.4383C88.3496 21.0303 88.6847 21.5737 89.1134 22.0391C89.5254 22.4805 90.0301 22.8251 90.5912 23.048C91.709 23.4964 92.9556 23.5019 94.0773 23.0633H94.0804Z" fill="#000000"/>
	<path d="M103.609 0.88079C103.887 0.59444 104.221 0.368497 104.59 0.21707C104.959 0.0656432 105.356 -0.00801628 105.755 0.000691046C106.161 -0.00538003 106.564 0.0714404 106.939 0.226456C107.315 0.381471 107.654 0.611424 107.938 0.902256C108.494 1.49522 108.795 2.28225 108.778 3.09484C108.78 3.49448 108.702 3.89047 108.547 4.25912C108.393 4.62777 108.166 4.9615 107.88 5.24034C107.594 5.51919 107.254 5.73742 106.882 5.88198C106.509 6.02653 106.111 6.09445 105.712 6.08166C105.312 6.08799 104.914 6.01144 104.545 5.85682C104.175 5.70219 103.842 5.47284 103.566 5.18316C103.286 4.90722 103.066 4.57732 102.919 4.21354C102.771 3.84977 102.699 3.45974 102.707 3.06724C102.7 2.66056 102.777 2.25679 102.932 1.88077C103.087 1.50475 103.317 1.16444 103.609 0.88079ZM103.845 9.04088L107.625 9.05928C107.701 9.05968 107.776 9.07499 107.845 9.10433C107.915 9.13368 107.979 9.17648 108.032 9.2303C108.085 9.28412 108.127 9.3479 108.156 9.418C108.184 9.4881 108.199 9.56314 108.198 9.63885L108.109 26.7318C108.106 26.8828 108.044 27.0265 107.935 27.1315C107.827 27.2366 107.681 27.2946 107.53 27.293H103.753C103.677 27.2922 103.602 27.2764 103.532 27.2464C103.463 27.2165 103.4 27.173 103.347 27.1185C103.294 27.0641 103.253 26.9997 103.225 26.9291C103.197 26.8585 103.184 26.7831 103.185 26.7073L103.271 9.61432C103.272 9.46248 103.333 9.31709 103.44 9.20972C103.547 9.10236 103.693 9.04168 103.845 9.04088Z" fill="#000000"/>
	<path d="M114.766 23.2641C115.321 23.8222 116.133 24.1227 117.219 24.1288C117.863 24.1727 118.503 23.9905 119.028 23.6136C119.218 23.4555 119.371 23.2577 119.477 23.0342C119.583 22.8108 119.639 22.5669 119.641 22.3196C119.644 22.1194 119.607 21.9206 119.532 21.7351C119.456 21.5496 119.344 21.3813 119.202 21.2401C118.896 20.9059 118.39 20.679 117.685 20.5287L115.266 19.9644C113.487 19.5474 112.199 18.8758 111.381 17.9068C110.583 16.9479 110.156 15.7348 110.176 14.4876C110.179 13.692 110.361 12.9073 110.706 12.1907C111.038 11.4579 111.537 10.813 112.163 10.3079C112.788 9.74394 113.517 9.30656 114.309 9.01994C115.172 8.68859 116.092 8.52921 117.016 8.55075C118.131 8.52711 119.239 8.72192 120.278 9.1242C121.092 9.41441 121.835 9.87316 122.458 10.4704C122.98 10.9667 123.397 11.562 123.685 12.2214C123.836 12.5619 123.961 12.9136 124.059 13.2732C124.077 13.348 124.08 13.4256 124.068 13.5015C124.055 13.5774 124.028 13.6501 123.987 13.7152C123.946 13.7804 123.893 13.8367 123.83 13.8809C123.767 13.925 123.696 13.9562 123.62 13.9724L120.6 14.6379C120.458 14.6694 120.31 14.6458 120.184 14.5717C120.059 14.4977 119.967 14.3788 119.926 14.2392C119.896 14.135 119.86 14.0326 119.819 13.9325C119.698 13.6217 119.51 13.3419 119.267 13.1138C119.005 12.8522 118.692 12.6485 118.347 12.5158C117.935 12.3521 117.493 12.2738 117.05 12.2858C116.464 12.2718 115.889 12.4518 115.416 12.7979C115.194 12.9358 115.011 13.1289 114.886 13.3584C114.761 13.5879 114.697 13.8459 114.701 14.1073C114.689 14.312 114.726 14.5166 114.809 14.7039C114.892 14.8912 115.02 15.0558 115.18 15.1837C115.525 15.4639 115.933 15.6565 116.369 15.7449L118.96 16.3122C120.775 16.6924 122.106 17.4039 122.992 18.4097C123.885 19.3665 124.369 20.634 124.341 21.9424C124.335 22.6933 124.18 23.4354 123.884 24.1258C123.604 24.86 123.155 25.5184 122.575 26.0485C121.932 26.6444 121.178 27.1071 120.355 27.41C118.201 28.1155 115.872 28.0744 113.745 27.2935C112.909 26.9404 112.138 26.4502 111.464 25.843C110.902 25.3257 110.462 24.6899 110.176 23.9816C109.999 23.609 109.859 23.2197 109.759 22.8194C109.741 22.7446 109.738 22.667 109.751 22.5911C109.763 22.5153 109.791 22.4427 109.832 22.3777C109.873 22.3128 109.927 22.2568 109.99 22.2131C110.054 22.1694 110.125 22.1388 110.2 22.1233L113.303 21.4671C113.448 21.4356 113.6 21.4618 113.726 21.5403C113.852 21.6187 113.942 21.7431 113.978 21.8872C114.113 22.4081 114.385 22.8834 114.766 23.2641Z" fill="#000000"/>
	<path d="M141.606 24.5147C141.117 25.2146 140.513 25.8255 139.818 26.3209C139.079 26.8536 138.265 27.2742 137.402 27.569C136.404 27.8714 135.364 28.0162 134.321 27.9983C133.095 27.9916 131.879 27.7727 130.727 27.3513C129.603 26.9225 128.583 26.2598 127.735 25.4071C126.853 24.5301 126.163 23.4782 125.711 22.3191C125.181 21.011 124.924 19.6086 124.954 18.1976C124.948 16.8392 125.207 15.4925 125.714 14.2326C126.167 13.1122 126.841 12.0944 127.695 11.2396C128.525 10.4142 129.513 9.76354 130.599 9.32609C131.661 8.86031 132.811 8.62615 133.971 8.63919C136.826 8.63919 139.012 9.51622 140.597 11.1936C142.182 12.871 142.949 15.2108 142.933 18.1424C142.938 18.4761 142.925 18.8099 142.893 19.1421C142.877 19.2822 142.809 19.4113 142.703 19.5047C142.598 19.598 142.461 19.6491 142.32 19.6481L130.455 19.5898C130.37 19.5886 130.287 19.6059 130.21 19.6407C130.133 19.6754 130.065 19.7267 130.01 19.7908C129.955 19.855 129.915 19.9304 129.893 20.0117C129.871 20.0931 129.867 20.1783 129.881 20.2614C129.942 20.6068 130.051 20.9421 130.203 21.258C130.459 21.7442 130.795 22.1838 131.196 22.5582C131.613 22.9397 132.095 23.243 132.619 23.4537L132.677 23.4751C133.227 23.6708 133.805 23.7744 134.388 23.7818C135.538 23.7818 136.467 23.5334 137.099 23.0152C137.634 22.6093 138.068 22.0844 138.365 21.4819C138.423 21.3575 138.523 21.258 138.648 21.2017C138.773 21.1454 138.914 21.136 139.046 21.1752L142.112 22.0952C142.187 22.1173 142.256 22.1545 142.316 22.2046C142.377 22.2547 142.426 22.3165 142.461 22.3863C142.496 22.4561 142.517 22.5324 142.522 22.6105C142.527 22.6886 142.515 22.7668 142.489 22.8404C142.268 23.4342 141.971 23.9969 141.606 24.5147ZM137.801 14.9624C137.651 14.5224 137.398 14.1241 137.065 13.8002C136.712 13.4359 136.283 13.1551 135.808 12.9784C135.247 12.7358 134.64 12.6186 134.029 12.6349C133.44 12.6216 132.854 12.7356 132.313 12.9692C131.845 13.177 131.417 13.4632 131.046 13.8155C130.719 14.1489 130.454 14.5371 130.261 14.9624C130.181 15.136 130.115 15.3154 130.062 15.4991C130.039 15.5842 130.036 15.6736 130.053 15.7602C130.07 15.8468 130.107 15.9283 130.16 15.9983C130.214 16.0683 130.283 16.125 130.362 16.164C130.442 16.2029 130.529 16.223 130.617 16.2228L137.414 16.2596C137.502 16.2595 137.588 16.2398 137.666 16.2018C137.745 16.1638 137.814 16.1085 137.868 16.0401C137.923 15.9717 137.961 15.8919 137.98 15.8067C137.999 15.7215 137.998 15.6331 137.979 15.5481C137.939 15.3475 137.879 15.1513 137.801 14.9624Z" fill="#000000"/>
	<path d="M146.537 12.8676C146.537 12.6228 146.581 12.4002 146.67 12.211C146.748 12.0218 146.87 11.866 147.015 11.7214C147.16 11.5767 147.338 11.4654 147.538 11.3875C147.727 11.3096 147.939 11.2429 148.172 11.2095L149.519 11.0092C149.675 10.9869 149.786 10.9424 149.842 10.8645C149.897 10.7977 149.931 10.7199 149.931 10.6197C149.931 10.4305 149.853 10.2636 149.708 10.1189C149.552 9.97427 149.319 9.9075 149.007 9.9075C148.684 9.9075 148.428 9.99652 148.261 10.1746C148.083 10.3526 147.983 10.5641 147.961 10.7977L146.648 10.5195C146.67 10.3081 146.737 10.0855 146.848 9.87411C146.959 9.66268 147.115 9.46237 147.304 9.29545C147.494 9.12853 147.738 8.98387 148.017 8.88371C148.295 8.77243 148.629 8.71679 148.996 8.71679C149.43 8.71679 149.797 8.77243 150.098 8.89484C150.398 9.00612 150.654 9.16192 150.843 9.35109C151.032 9.54027 151.166 9.75171 151.255 10.0077C151.333 10.2636 151.377 10.5195 151.377 10.7977V13.4907C151.377 13.6354 151.389 13.8023 151.4 13.9693C151.411 14.1362 151.433 14.2586 151.444 14.3587H150.087C150.075 14.2808 150.064 14.1807 150.053 14.0583C150.042 13.9247 150.031 13.8023 150.031 13.7022C149.886 13.9136 149.686 14.1028 149.43 14.2697C149.163 14.4366 148.829 14.5145 148.417 14.5145C148.128 14.5145 147.872 14.47 147.638 14.381C147.405 14.2808 147.204 14.1584 147.037 14.0138C146.87 13.858 146.748 13.6799 146.67 13.4796C146.581 13.2904 146.537 13.079 146.537 12.8676ZM148.729 13.4129C148.885 13.4129 149.04 13.3906 149.185 13.3461C149.33 13.3127 149.452 13.2348 149.563 13.1346C149.675 13.0345 149.764 12.9121 149.831 12.7452C149.897 12.5894 149.931 12.3891 149.931 12.1442V11.8994L148.695 12.0886C148.506 12.122 148.339 12.1888 148.217 12.2889C148.083 12.4002 148.017 12.5671 148.017 12.7785C148.017 12.9455 148.072 13.0901 148.195 13.2125C148.317 13.3461 148.495 13.4129 148.729 13.4129Z" fill="#000000"/>
	<path d="M152.291 14.3587V8.88371H153.771V14.3587H152.291ZM152.113 7.09209C152.113 6.83614 152.202 6.61358 152.38 6.43553C152.558 6.25748 152.769 6.16846 153.025 6.16846C153.281 6.16846 153.504 6.25748 153.682 6.43553C153.849 6.61358 153.938 6.83614 153.938 7.09209C153.938 7.33691 153.849 7.54834 153.682 7.72639C153.504 7.90444 153.281 7.99347 153.025 7.99347C152.769 7.99347 152.558 7.90444 152.38 7.72639C152.202 7.54834 152.113 7.33691 152.113 7.09209Z" fill="#000000"/>
</svg>