<svg xmlns="http://www.w3.org/2000/svg" width="84" height="24" viewBox="0 0 84 24" fill="none">
<g clip-path="url(#clip0_1474_741)">
<path fill-rule="evenodd" clip-rule="evenodd" d="M2.66121 23.3078H0V2.50781H2.66121V23.3078Z" fill="#080808"/>
<path fill-rule="evenodd" clip-rule="evenodd" d="M12.0017 20.1756C11.572 21.2763 11.1422 22.2612 10.7985 23.0432L10.7412 23.1881H7.47515L7.61839 22.8694C8.87896 19.7991 10.6552 14.9039 11.8012 10.8487C12.3742 8.79212 12.7752 6.96728 12.8898 5.69279C12.9471 5.05555 12.9185 4.56313 12.8325 4.27347C12.7752 4.12865 12.7179 4.04175 12.6606 4.01278C12.6034 3.98382 12.3742 3.89692 12.2596 3.92589C10.0822 3.78106 7.13136 5.98245 6.58702 7.89418C6.09999 9.54523 7.3892 10.1825 7.79029 10.2694C8.53517 10.4432 8.90761 10.4721 9.88168 10.1245C9.93898 10.0956 10.0249 10.0666 10.1109 10.1245C10.2255 10.1535 10.2541 10.2694 10.2828 10.3273C10.2828 10.3852 10.2828 10.4432 10.2828 10.5011C10.2828 10.559 10.2541 10.588 10.2541 10.6459C10.1968 10.8487 10.0536 11.0804 9.88168 11.3411C9.50924 11.8625 8.87896 12.4418 8.07678 12.5577C6.70162 12.7604 5.6989 12.297 5.03997 11.457C4.38104 10.6459 4.1232 9.66109 4.32374 8.4735C4.83943 5.3452 9.73843 2.68036 12.1736 2.4776C13.1477 2.33278 13.9212 2.50657 14.4942 2.94105C15.0672 3.37554 15.411 4.07071 15.5542 4.91072C15.8121 6.21417 15.6688 7.89418 15.325 9.74798C16.2704 8.03901 17.3878 6.12728 18.5051 4.53417C19.2213 3.4914 19.9662 2.53553 20.6824 1.84036C21.37 1.14518 22.0576 0.652767 22.7165 0.56587C23.2895 0.536904 23.8052 0.623801 24.2349 0.884492C24.6074 1.08725 24.9511 1.46381 25.1517 1.95622C25.5814 2.97002 25.5528 4.4183 25.0657 6.27211C24.7506 7.54659 23.9198 10.0666 22.6879 13.8611C22.0576 15.7439 21.5992 17.2211 21.2554 18.3508C20.9116 19.4804 20.7397 20.1756 20.7111 20.5232C20.6824 20.8418 20.6824 21.0736 20.7397 21.1894C20.7397 21.2474 20.7684 21.2474 20.7684 21.2763C20.883 21.2763 21.0549 21.1894 21.284 21.0446C21.5132 20.8708 21.7711 20.6391 22.0576 20.3784C22.6306 19.7991 23.2322 19.046 23.8338 18.2639C25.0084 16.6997 26.0398 15.0777 26.2117 14.817L26.3836 14.5853C26.6701 14.1797 27.329 14.3246 27.3863 14.8459V14.9039C27.415 15.0487 27.3863 15.1935 27.3004 15.3094L26.9852 15.8018C26.9566 15.8308 26.9279 15.9177 26.842 16.0046C26.4695 16.5839 25.4382 18.206 24.2636 19.7991C23.576 20.726 22.8311 21.6818 22.1722 22.406C21.8284 22.7536 21.5132 23.0722 21.1981 23.3039C20.9116 23.5356 20.5965 23.7094 20.3386 23.7384C19.7943 23.8253 19.1354 23.6515 18.591 23.3039C18.0467 22.9563 17.617 22.377 17.5024 21.6529C17.4451 21.1894 17.5024 20.5232 17.6456 19.7991C17.7888 19.046 18.0467 18.177 18.3332 17.2501C18.8202 15.6859 19.4792 13.919 20.1094 12.1521C20.2527 11.7756 20.3673 11.428 20.5105 11.0514C21.284 8.93695 21.9716 6.96728 22.3441 5.4321C22.516 4.67899 22.6306 4.07072 22.6019 3.63623C22.6019 3.4045 22.5733 3.25968 22.516 3.17278C22.4587 3.08588 22.43 3.02795 22.3441 3.02795C22.1722 2.97002 21.9143 3.02795 21.5992 3.25968C21.284 3.46244 20.9116 3.83899 20.5105 4.30244C19.7083 5.25831 18.8202 6.70659 17.8461 8.41556C15.984 11.7756 13.9212 16.1204 12.0877 20.0018L12.0017 20.1756Z" fill="#F60109"/>
<path fill-rule="evenodd" clip-rule="evenodd" d="M31.6539 23.3078H28.9927V2.50781H36.5471C39.1797 2.50781 41.2972 2.99554 42.7852 3.99967C44.3304 5.00381 45.0744 6.61043 45.0744 8.70478C45.0744 10.7991 44.359 12.4344 42.8996 13.5246C41.4403 14.5862 39.3227 15.1026 36.5471 15.1026H31.6539V23.3078ZM41.0683 11.6311C40.1812 12.1475 38.6932 12.4344 36.5757 12.4344H31.6539V5.20464H36.5471C38.636 5.20464 40.124 5.49154 41.0396 6.03664C41.8981 6.52436 42.3559 7.41374 42.3559 8.73347C42.3846 10.1679 41.9267 11.1147 41.0683 11.6311Z" fill="#080808"/>
<path d="M64.3512 14.0697C64.3512 17.3404 63.6644 19.7216 62.062 21.1848C60.4882 22.6193 58.4565 23.3078 55.9383 23.3078C53.4202 23.3078 51.3885 22.6193 49.8147 21.1848C48.2409 19.7216 47.4683 17.3404 47.4683 14.0697V2.50781H50.1295V14.0411C50.1295 16.5657 50.6732 18.2297 51.6461 19.1765C52.6762 20.1233 54.0784 20.611 55.9097 20.611C57.7411 20.611 59.1432 20.1233 60.1448 19.1765C61.1463 18.2297 61.69 16.5657 61.69 14.0411V2.50781H64.3512V14.0697Z" fill="#080808"/>
<path d="M83.5077 2.50781V5.17964H76.4873V23.3078H73.8224V5.20836H66.802V2.50781H83.5077Z" fill="#080808"/>
</g>
<defs>
<clipPath id="clip0_1474_741">
<rect width="84" height="24" fill="white"/>
</clipPath>
</defs>
</svg>