<svg width="159" height="33" viewBox="0 0 159 33" fill="none" xmlns="http://www.w3.org/2000/svg">
<path fill-rule="evenodd" clip-rule="evenodd" d="M27.2415 30.8991C31.5291 29.7572 34.0703 25.3647 32.9174 21.088C31.7645 16.8114 27.354 14.2702 23.0664 15.4121C22.8267 15.4759 22.5925 15.5499 22.3641 15.6335L22.3568 15.6062L15.3031 17.4852L19.4758 32.9666L26.5296 31.0877L26.5212 31.0566C26.7613 31.0154 27.0016 30.963 27.2415 30.8991Z" fill="#1841D5"/>
<g filter="url(#filter0_d_14983_23977)">
<path fill-rule="evenodd" clip-rule="evenodd" d="M18.939 22.5595C23.2267 21.4176 25.7679 17.025 24.6149 12.7484C23.462 8.47178 19.0516 5.93058 14.7639 7.07247C14.5242 7.13632 14.2899 7.21033 14.0614 7.29392L14.0541 7.26689L7.0004 9.14584L11.1731 24.6273L18.2269 22.7483L18.2184 22.717C18.4586 22.6758 18.699 22.6234 18.939 22.5595Z" fill="#436CFF"/>
</g>
<path d="M40.4755 24.9866V12.1166H45.0835C47.7295 12.1166 49.2955 13.1246 49.2955 15.4646V15.5366C49.2955 16.8146 48.7195 17.8226 47.2615 18.2726C49.0075 18.6506 49.8355 19.6046 49.8355 21.3146V21.3866C49.8355 23.7806 48.2515 24.9866 45.4255 24.9866H40.4755ZM42.8155 23.2766H45.1375C46.7395 23.2766 47.4775 22.5566 47.4775 21.2246V21.1526C47.4775 19.8206 46.7395 19.1546 44.9755 19.1546H42.8155V23.2766ZM42.8155 17.5346H44.7955C46.3795 17.5346 46.9915 16.9586 46.9915 15.6446V15.5726C46.9915 14.3486 46.2895 13.8266 44.7595 13.8266H42.8155V17.5346ZM56.1091 23.4746C57.7291 23.4746 58.7011 22.2686 58.7011 20.3426V20.2166C58.7011 18.2726 57.7291 17.0846 56.1091 17.0846C54.4891 17.0846 53.4991 18.2546 53.4991 20.1986V20.3426C53.4991 22.2686 54.4531 23.4746 56.1091 23.4746ZM56.0911 25.1666C53.3191 25.1666 51.2671 23.2406 51.2671 20.3786V20.2346C51.2671 17.3186 53.3371 15.3746 56.1091 15.3746C58.8631 15.3746 60.9331 17.3006 60.9331 20.1806V20.3246C60.9331 23.2586 58.8631 25.1666 56.0911 25.1666ZM66.051 25.1666C64.197 25.1666 62.811 24.1046 62.811 21.6026V15.5726H64.989V21.3506C64.989 22.7726 65.583 23.4206 66.843 23.4206C68.013 23.4206 69.039 22.6646 69.039 21.1706V15.5726H71.217V24.9866H69.039V23.5106C68.571 24.4286 67.581 25.1666 66.051 25.1666ZM73.7994 24.9866V15.5726H75.9774V17.0666C76.4274 16.1486 77.4714 15.3746 79.0194 15.3746C80.9094 15.3746 82.2414 16.4726 82.2414 19.0646V24.9866H80.0634V19.2626C80.0634 17.8406 79.4874 17.1926 78.1914 17.1926C76.9674 17.1926 75.9774 17.9486 75.9774 19.4426V24.9866H73.7994ZM88.2786 25.1666C85.9206 25.1666 84.1386 23.4926 84.1386 20.4326V20.2886C84.1386 17.2826 85.9206 15.3746 88.3686 15.3746C89.8986 15.3746 90.8526 16.0766 91.3746 17.0126V11.2166H93.5526V24.9866H91.3746V23.4026C90.8706 24.3386 89.6646 25.1666 88.2786 25.1666ZM88.8186 23.4386C90.3306 23.4386 91.4466 22.4306 91.4466 20.3246V20.1806C91.4466 18.1106 90.4926 17.0846 88.9086 17.0846C87.3066 17.0846 86.3706 18.2006 86.3706 20.2346V20.3786C86.3706 22.4486 87.4146 23.4386 88.8186 23.4386ZM96.1952 24.9866V11.2166H98.3732V24.9866H96.1952ZM105.168 25.1666C102.396 25.1666 100.398 23.3486 100.398 20.3786V20.2346C100.398 17.3186 102.396 15.3746 105.078 15.3746C107.418 15.3746 109.524 16.7606 109.524 20.1266V20.7566H102.63C102.702 22.5386 103.602 23.5466 105.222 23.5466C106.536 23.5466 107.22 23.0246 107.382 22.1066H109.488C109.182 24.0866 107.58 25.1666 105.168 25.1666ZM102.666 19.2986H107.364C107.256 17.6786 106.428 16.9586 105.078 16.9586C103.764 16.9586 102.882 17.8406 102.666 19.2986ZM114.779 25.1666C112.349 25.1666 110.927 24.0506 110.837 22.0526H112.889C112.997 23.0066 113.483 23.5646 114.761 23.5646C115.931 23.5646 116.453 23.1506 116.453 22.3586C116.453 21.5846 115.823 21.2966 114.437 21.0626C111.953 20.6666 111.035 19.9646 111.035 18.2006C111.035 16.3106 112.799 15.3746 114.563 15.3746C116.489 15.3746 118.019 16.0946 118.253 18.2186H116.237C116.057 17.3546 115.571 16.9586 114.563 16.9586C113.627 16.9586 113.069 17.4086 113.069 18.0746C113.069 18.7586 113.519 19.0286 115.013 19.2806C117.227 19.6226 118.541 20.1626 118.541 22.1606C118.541 24.0686 117.191 25.1666 114.779 25.1666ZM123.674 25.1666C121.244 25.1666 119.822 24.0506 119.732 22.0526H121.784C121.892 23.0066 122.378 23.5646 123.656 23.5646C124.826 23.5646 125.348 23.1506 125.348 22.3586C125.348 21.5846 124.718 21.2966 123.332 21.0626C120.848 20.6666 119.93 19.9646 119.93 18.2006C119.93 16.3106 121.694 15.3746 123.458 15.3746C125.384 15.3746 126.914 16.0946 127.148 18.2186H125.132C124.952 17.3546 124.466 16.9586 123.458 16.9586C122.522 16.9586 121.964 17.4086 121.964 18.0746C121.964 18.7586 122.414 19.0286 123.908 19.2806C126.122 19.6226 127.436 20.1626 127.436 22.1606C127.436 24.0686 126.086 25.1666 123.674 25.1666ZM129.526 24.9866V12.1166H133.666C136.546 12.1166 138.436 13.3946 138.436 16.0946V16.1666C138.436 18.8846 136.474 20.0906 133.72 20.0906H131.92V24.9866H129.526ZM131.92 18.3626H133.666C135.25 18.3626 136.096 17.5886 136.096 16.1666V16.0946C136.096 14.5646 135.196 13.9706 133.666 13.9706H131.92V18.3626ZM142.605 25.1666C140.877 25.1666 139.455 24.3386 139.455 22.3766C139.455 20.1806 141.579 19.3886 144.279 19.3886H145.449V18.9026C145.449 17.6426 145.017 17.0126 143.739 17.0126C142.605 17.0126 142.047 17.5526 141.939 18.4886H139.833C140.013 16.2926 141.759 15.3746 143.865 15.3746C145.971 15.3746 147.627 16.2386 147.627 18.8126V24.9866H145.485V23.8346C144.873 24.6446 144.045 25.1666 142.605 25.1666ZM143.127 23.6006C144.459 23.6006 145.449 22.8986 145.449 21.6926V20.7566H144.333C142.677 20.7566 141.615 21.1346 141.615 22.2866C141.615 23.0786 142.047 23.6006 143.127 23.6006ZM150.904 28.2086L152.614 24.0326L148.888 15.5726H151.246L153.748 21.6386L156.052 15.5726H158.176L153.046 28.2086H150.904Z" fill="black"/>
<defs>
<filter id="filter0_d_14983_23977" x="0.294237" y="0.247735" width="31.3046" height="31.2404" filterUnits="userSpaceOnUse" color-interpolation-filters="sRGB">
<feFlood flood-opacity="0" result="BackgroundImageFix"/>
<feColorMatrix in="SourceAlpha" type="matrix" values="0 0 0 0 0 0 0 0 0 0 0 0 0 0 0 0 0 0 127 0" result="hardAlpha"/>
<feOffset dy="0.15467"/>
<feGaussianBlur stdDeviation="3.35313"/>
<feColorMatrix type="matrix" values="0 0 0 0 0.770833 0 0 0 0 0.770833 0 0 0 0 0.770833 0 0 0 0.1 0"/>
<feBlend mode="normal" in2="BackgroundImageFix" result="effect1_dropShadow_14983_23977"/>
<feBlend mode="normal" in="SourceGraphic" in2="effect1_dropShadow_14983_23977" result="shape"/>
</filter>
</defs>
</svg>
