<svg width="155" height="36" viewBox="0 0 155 36" fill="none" xmlns="http://www.w3.org/2000/svg" class="logo_Nkjt-"><g clip-path="url(#clip0_887_11242)"><path d="M27.8737 10.8403C27.0126 10.7227 26.2057 10.3524 25.555 9.77625C24.9044 9.20006 24.4392 8.4439 24.2184 7.60332C23.9976 6.76274 24.031 5.8755 24.3144 5.05392C24.5979 4.23234 25.1186 3.51329 25.8108 2.98768C26.5029 2.46206 27.3354 2.15347 28.2029 2.10103C29.0704 2.04858 29.934 2.25459 30.6844 2.693C31.4348 3.1314 32.0384 3.78255 32.4188 4.56401C32.7991 5.34546 32.9391 6.22213 32.8212 7.08318C32.6621 8.23691 32.0518 9.28046 31.1243 9.98481C30.1968 10.6892 29.0278 10.9968 27.8737 10.8403ZM28.7714 4.27531C28.3343 4.21521 27.8892 4.2861 27.4923 4.47904C27.0955 4.67198 26.7648 4.9783 26.5421 5.35922C26.3194 5.74014 26.2146 6.1785 26.2411 6.61896C26.2676 7.05941 26.4242 7.48213 26.691 7.8336C26.9577 8.18507 27.3228 8.44951 27.7399 8.59347C28.157 8.73744 28.6074 8.75451 29.0342 8.64243C29.461 8.53034 29.8449 8.29418 30.1375 7.96385C30.43 7.63351 30.618 7.22377 30.6777 6.78657C30.7565 6.201 30.6002 5.60807 30.243 5.13744C29.8858 4.6668 29.3567 4.35683 28.7714 4.27531Z" fill="#232323"></path><path d="M34.1741 14.6318C34.503 16.4213 34.5418 18.2521 34.2888 20.0539C33.7867 23.716 32.1191 27.1194 29.5329 29.7604C26.9466 32.4014 23.579 34.1398 19.9281 34.7185C16.2773 35.2972 12.5371 34.6854 9.26086 32.9737C5.98465 31.2619 3.3464 28.5412 1.73638 25.2138C0.126357 21.8864 -0.369914 18.1291 0.320955 14.4978C1.01182 10.8665 2.85314 7.55402 5.57254 5.05033C8.29195 2.54664 11.745 0.984724 15.4209 0.595647C19.0968 0.206571 22.8003 1.01103 25.9836 2.88995L24.8842 4.7487C21.9515 3.02171 18.5194 2.34132 15.1496 2.81889C11.7799 3.29646 8.672 4.90369 6.33464 7.37756C3.99728 9.85144 2.56885 13.0455 2.28311 16.4369C1.99738 19.8283 2.87126 23.2163 4.76176 26.0464C6.65226 28.8764 9.44741 30.9809 12.6898 32.0156C15.9321 33.0502 19.4296 32.9537 22.61 31.7418C25.7903 30.5298 28.4651 28.2743 30.1966 25.3442C31.928 22.4142 32.6137 18.9831 32.1413 15.6126" fill="#232323"></path></g><g clip-path="url(#clip1_887_11242)"><g clip-path="url(#clip2_887_11242)"><path d="M49.4658 10.1804H65.4824V2.5H67.5283V27.9485H65.4824V12.1865H51.5702V25.9424H65.4824L63.4365 27.9485H49.4658V10.1804Z" fill="#232323"></path><path d="M80.445 26.3386C76.1778 26.3386 73.0797 23.0142 73.0797 19.0021H88.9794C88.804 12.6973 85.0044 9.7168 80.0358 9.7168C74.9502 9.7168 70.8584 13.8436 70.8584 18.9447C70.8584 24.0459 74.8333 28.1727 80.445 28.1727C83.66 28.1727 85.7644 26.7398 87.4011 25.3069L86.0566 23.874C84.5953 25.1349 83.017 26.3386 80.445 26.3386ZM79.9773 11.6082C83.3093 11.6082 86.1735 13.4997 86.5827 17.1679H73.255C73.898 13.8436 76.7623 11.6082 79.9773 11.6082Z" fill="#232323"></path><path d="M97.8071 27.9508H92.2539V10.1827H97.8071V15.5705L103.302 10.1827H110.375V27.9508H104.822V15.5705H97.8071V27.9508Z" fill="#232323"></path><path d="M118.559 16.7641H126.041C125.749 14.8726 124.112 14.0129 122.358 14.0129C121.014 14.0702 119.085 14.6434 118.559 16.7641ZM113.239 18.9994C113.239 13.7263 117.039 9.77148 122.65 9.77148C127.268 9.77148 131.477 12.7519 131.477 18.4263C131.477 18.9421 131.419 19.458 131.36 20.0311H118.559C118.792 22.4384 120.897 23.3555 122.534 23.3555C124.229 23.3555 125.281 22.3811 126.041 21.0628L130.6 23.6994C128.905 26.2786 126.216 28.2847 122.592 28.2847C117.682 28.2274 113.239 24.5018 113.239 18.9994Z" fill="#232323"></path><path d="M142.64 4.79785V10.1856H148.603V14.9429H142.64V23.0245H148.603V27.9537H137.087V14.9429H132.294L142.64 4.79785Z" fill="#232323"></path></g></g><defs><clipPath id="clip0_887_11242"><rect width="35" height="35" fill="white" transform="translate(0 0.5)"></rect></clipPath><clipPath id="clip1_887_11242"><rect width="100" height="31" fill="white" transform="translate(49.4658 2.5)"></rect></clipPath><clipPath id="clip2_887_11242"><rect width="100" height="27" fill="white" transform="translate(49.4658 2.5)"></rect></clipPath></defs></svg>
