<?xml version="1.0" encoding="UTF-8" standalone="no"?>
<svg
   viewBox="0 0 203 59"
   fill="none"
   width="108"
   height="32"
   color=""
   class=""
   version="1.1"
   id="svg16"
   sodipodi:docname="EvoSim.svg"
   xmlns:inkscape="http://www.inkscape.org/namespaces/inkscape"
   xmlns:sodipodi="http://sodipodi.sourceforge.net/DTD/sodipodi-0.dtd"
   xmlns="http://www.w3.org/2000/svg"
   xmlns:svg="http://www.w3.org/2000/svg">
  <defs
     id="defs20" />
  <sodipodi:namedview
     id="namedview18"
     pagecolor="#ffffff"
     bordercolor="#000000"
     borderopacity="0.25"
     inkscape:showpageshadow="2"
     inkscape:pageopacity="0.0"
     inkscape:pagecheckerboard="0"
     inkscape:deskcolor="#d1d1d1" />
  <path
     fill-rule="evenodd"
     clip-rule="evenodd"
     d="M41.5996 20.4691C39.3685 15.9682 33.1937 6.92832 20.3989 7.52846C7.6041 8.12861 1.8018 19.7814 0.5 25.5328C2.04976 21.9069 7.6041 15.3304 17.4234 18.031C19.655 18.5311 24.1182 20.4691 28.0237 24.7826C31.0803 28.1586 36.4608 33.2075 41.2277 29.6588C42.5295 28.721 44.2027 25.7206 41.5996 20.4691ZM1.87038 38.5309C4.10146 43.0318 10.2763 52.0717 23.0711 51.4716C35.8659 50.8714 41.6682 39.2186 42.97 33.4672C41.4202 37.0931 35.8659 43.6697 26.0466 40.969C23.815 40.4689 19.3517 38.5309 15.4463 34.2174C12.3897 30.8414 7.00916 25.7925 2.24232 29.3412C0.940527 30.279 -0.732675 33.2795 1.87038 38.5309Z"
     fill="black"
     id="path2" />
  <path
     d="M79.2942 38.5162V43.7722H58.5C58.5 34.3518 58.5 24.8908 58.5 15.4703H79.2942V20.6456H63.6986V27.155H78.7386V32.128H63.6986V38.5162H79.2942Z"
     fill="black"
     id="path4" />
  <path
     d="M97.9861 23.7992H103.264L94.9305 43.8531H89.6922L81.319 23.7992H86.5969L89.2954 30.3895L92.3113 38.7992L95.2876 30.4704L97.9861 23.7992Z"
     fill="black"
     id="path6" />
  <path
     d="M114.824 23.4353C121.055 23.4353 125.063 28.1253 125.063 33.8261C125.063 39.5674 121.213 44.217 114.864 44.217C108.515 44.217 104.705 39.5674 104.705 33.8261C104.705 28.1253 108.594 23.4353 114.824 23.4353ZM114.864 27.9232C111.372 27.9232 109.546 30.8342 109.546 33.8261C109.546 36.8585 111.332 39.6887 114.864 39.6887C118.396 39.6887 120.182 36.8585 120.182 33.8261C120.182 30.8342 118.118 27.9232 114.864 27.9232Z"
     fill="black"
     id="path8" />
  <path
     d="M150.072 20.1199L145.905 22.3032C144.953 20.686 142.334 19.1496 139.318 19.1496C135.429 19.1496 133.564 20.8073 133.564 22.9097C133.564 25.376 136.421 26.0633 139.754 26.4677C145.548 27.1954 150.945 28.7318 150.945 35.4838C150.945 41.7911 145.469 44.5 139.278 44.5C133.603 44.5 129.238 42.721 127.175 37.5458L131.54 35.2412C132.77 38.3544 135.984 39.7291 139.357 39.7291C142.651 39.7291 145.747 38.5566 145.747 35.4838C145.747 32.8154 143.008 31.7237 139.318 31.3194C133.643 30.6321 128.405 29.0957 128.405 22.748C128.405 16.9259 134.04 14.5404 139.159 14.5C143.485 14.5 147.969 15.7534 150.072 20.1199Z"
     fill="black"
     id="path10" />
  <path
     d="M159.482 23.7588V43.7722H154.641V23.7588H159.482ZM154.204 18.2197C154.204 22.0606 159.919 22.0606 159.919 18.2197C159.919 14.3787 154.204 14.3787 154.204 18.2197Z"
     fill="black"
     id="path12" />
  <path
     d="M181.722 43.7722H176.88V33.0984C176.88 30.4704 175.531 28.0849 172.872 28.0849C170.253 28.0849 168.706 30.4704 168.706 33.0984V43.7722H163.864V23.7992H168.349L168.706 26.2251C169.737 24.2035 171.999 23.4757 173.865 23.4757C176.206 23.4757 178.547 24.4461 179.658 27.1954C181.404 24.3652 183.666 23.5566 186.206 23.5566C191.762 23.5566 194.5 27.0337 194.5 33.0175V43.7722H189.659V33.0175C189.659 30.3895 188.587 28.1658 185.968 28.1658C183.349 28.1658 181.722 30.4704 181.722 33.0984V43.7722Z"
     fill="black"
     id="path14" />
</svg>
