<svg xmlns="http://www.w3.org/2000/svg" width="112" height="36" viewBox="0 0 112 36" fill="none" id="svg343895481_9905">
<path fill-rule="evenodd" clip-rule="evenodd" d="M20.4948 3.96289H24.1812C25.0449 3.96289 25.6362 4.83057 25.3174 5.63046L18.1216 23.5697C17.2007 25.926 14.9229 27.4797 12.3835 27.4797H0.817394C0.365102 27.4797 0 27.1164 0 26.6663C0 26.2162 0.365102 25.8528 0.817394 25.8528L6.79254 25.8637C8.35376 25.8664 9.75696 24.9119 10.3182 23.4613L17.2443 6.1592C17.7729 4.83328 19.0616 3.96289 20.4948 3.96289ZM62.2343 3.97122H65.9208V3.96851C66.7845 3.96851 67.3757 4.83619 67.0569 5.63608L59.0029 25.7446C58.5833 26.7939 57.5615 27.4799 56.4281 27.4799H42.5597C41.181 27.4799 40.2301 26.0998 40.7314 24.8199L44.535 15.0965C45.2489 13.2689 47.0199 12.0678 48.9898 12.0678L54.1121 12.0732C55.6298 12.0759 56.9948 11.154 57.5561 9.74942L58.9838 6.16753C59.5124 4.84161 60.8011 3.97122 62.2343 3.97122ZM51.4856 25.0016L55.5644 14.8009V14.7982C55.766 14.2885 55.3927 13.7353 54.8424 13.7353L53.3329 13.7299C52.4637 13.7272 51.679 14.2559 51.3575 15.0612L47.6002 24.4647C47.3387 25.1263 47.8264 25.8422 48.5402 25.8422H50.2431C50.7908 25.8422 51.284 25.5086 51.4856 25.0016ZM27.3195 12.0647H40.0545V12.0674C41.6974 12.0674 42.8227 13.7133 42.2206 15.2344L38.2562 25.2507C37.7222 26.5983 36.4144 27.485 34.9594 27.485H20.8103C19.8294 27.485 19.1564 26.498 19.5188 25.5897L20.9111 22.0972C21.4479 20.7523 22.753 19.8711 24.2052 19.8711H30.1749C31.7062 19.8711 33.0848 18.9411 33.6488 17.5229L34.7006 14.9036C34.924 14.3451 34.5125 13.7404 33.9104 13.7377L32.7933 13.7323C32.3437 13.7296 31.9378 14.0007 31.7661 14.4156L31.183 15.8906C30.8207 16.7719 29.9597 17.3467 29.0033 17.3467H24.8864C23.9055 17.3467 23.2325 16.3597 23.5949 15.4514L24.0254 14.2908C24.5621 12.9459 25.8672 12.0647 27.3195 12.0647ZM30.6653 24.9985L31.5672 22.7426V22.7399C31.7688 22.2301 31.3956 21.677 30.8452 21.677L29.3357 21.6715C28.4666 21.6688 27.6819 22.1976 27.3604 23.0029L26.78 24.4617C26.5184 25.1233 27.0062 25.8391 27.72 25.8391H29.4229C29.9706 25.8391 30.4637 25.5056 30.6653 24.9985ZM83.4487 12.0647H69.2287C67.7765 12.0647 66.4714 12.9459 65.9346 14.2908L65.6431 15.0202C65.2807 15.9286 63.3571 20.7496 62.8204 22.0945L61.4281 25.5869C61.0657 26.4953 61.7387 27.4823 62.7196 27.4823H76.8686C78.3236 27.4823 79.6314 26.5956 80.1655 25.248L80.6178 23.9736C80.9583 23.1141 80.3208 22.1813 79.3917 22.1813H75.3619C74.3565 22.1813 73.4438 22.7588 73.016 23.6645L72.4138 25.0799C72.1932 25.5463 71.7218 25.8445 71.2041 25.8445H70.3894C69.6619 25.8445 69.1715 25.1016 69.4631 24.4373L70.433 22.0945C71.0679 20.6141 72.5283 19.6542 74.1467 19.6542H79.5061C81.239 19.6542 82.7975 18.5994 83.4323 16.9942L84.672 13.8597C85.0126 13.0002 84.375 12.0674 83.4459 12.0674L83.4487 12.0647ZM77.4245 14.8169L76.5226 17.0728C76.321 17.5799 75.8278 17.9134 75.2802 17.9134H73.5773C72.8634 17.9134 72.3757 17.1976 72.6373 16.536L73.2176 15.0772C73.5391 14.2719 74.3238 13.7431 75.193 13.7458L76.7024 13.7512C77.2528 13.7512 77.6261 14.3044 77.4245 14.8142V14.8169ZM37.5621 35.9149L42.333 30.012H43.6435L43.9105 35.9149H42.9269L42.8615 34.5049H39.7609L38.6302 35.9149H37.5648H37.5621ZM40.3358 33.7349H42.8615L42.7389 31.3053L42.7253 30.8363H42.6681L42.3166 31.2972L40.3331 33.7321L40.3358 33.7349ZM50.9333 30.205C51.1921 30.3351 51.3719 30.525 51.47 30.7771L51.4728 30.7744C51.5708 31.0266 51.5981 31.2625 51.5518 31.68C51.5027 32.1112 51.3338 32.5043 51.124 32.7511C50.8733 33.0439 50.6145 33.2609 50.2276 33.4154C49.887 33.551 49.4974 33.6432 49.1159 33.6513L50.045 35.9127H48.8898L48.0397 33.7652H46.5057L45.6611 35.9127H44.653L46.9744 30.0098H49.9333C50.3393 30.0098 50.6744 30.0748 50.9333 30.205ZM48.9307 32.9761C50.1377 32.9761 50.3883 32.3688 50.4755 32.141C50.6009 31.8183 50.6881 31.5174 50.6308 31.2869C50.5954 31.135 50.4837 31.0212 50.3284 30.9344C50.1731 30.8476 49.9633 30.8042 49.6963 30.8042H47.6719L46.8163 32.9761H48.9307ZM53.0892 35.9969C52.7159 35.9969 52.4053 35.9237 52.1601 35.7746C51.9149 35.6255 51.7432 35.4167 51.6479 35.1482C51.5498 34.8771 51.5416 34.5653 51.6179 34.2101L51.6315 34.145C51.7214 33.7247 51.8522 33.3505 52.0266 33.0279C52.1982 32.7052 52.4026 32.4313 52.6423 32.209C52.8794 31.9866 53.1437 31.8239 53.4298 31.7182C53.7186 31.6125 54.021 31.5609 54.3425 31.5609C54.7376 31.5609 55.0673 31.645 55.3316 31.8131C55.5931 31.9812 55.7457 32.1981 55.7839 32.4693H55.8574L56.822 30.0154H57.7565L55.4433 35.9183H54.6123L54.8003 35.3435H54.7185C54.5605 35.555 54.3316 35.7149 54.0374 35.8288C53.7404 35.9427 53.427 35.9997 53.0892 35.9997V35.9969ZM53.6069 35.292C53.9965 35.292 54.3235 35.1943 54.5877 34.9991C54.852 34.8039 55.0455 34.5517 55.1654 34.2372L55.397 33.6542C55.5114 33.3722 55.5414 33.1282 55.4842 32.9221C55.4297 32.7133 55.3071 32.5533 55.1163 32.4367C54.9256 32.3202 54.6886 32.2632 54.3997 32.2632C54.1763 32.2632 53.9693 32.3012 53.7731 32.3771C53.5769 32.453 53.408 32.5588 53.2608 32.6971C53.1137 32.8353 52.9993 33.0116 52.9148 33.2285L52.6533 33.8847C52.5443 34.1667 52.5088 34.4134 52.547 34.6249C52.5851 34.8391 52.6941 35.0018 52.8739 35.1184C53.0538 35.235 53.2963 35.292 53.6069 35.292ZM58.3785 31.6395L56.6974 35.9155H57.632L59.3131 31.6395H58.3785ZM58.9997 30.0208L58.6237 30.9833H59.5746L59.9425 30.0208H58.9997ZM58.9019 35.9155L60.5748 31.6395H61.4712L61.2778 32.2794H61.3514C61.5394 32.0624 61.7873 31.8889 62.0979 31.756C62.4085 31.6232 62.7327 31.5581 63.0679 31.5581C63.4739 31.5581 63.7926 31.6422 64.0188 31.8103C64.2449 31.9784 64.3839 32.2116 64.4302 32.5153C64.4765 32.819 64.4193 33.1714 64.2558 33.5755L63.3403 35.9155H62.4031L63.3213 33.5348C63.4439 33.2419 63.4847 33.0006 63.4439 32.8108C63.403 32.6183 63.2995 32.4746 63.1333 32.377C62.9671 32.2794 62.7545 32.2306 62.493 32.2306C62.2314 32.2306 62.0025 32.2767 61.7873 32.3716C61.572 32.4665 61.3813 32.5966 61.2178 32.7647C61.0544 32.9328 60.9263 33.1308 60.8337 33.364L59.831 35.9155H58.9046H58.9019ZM65.5383 35.7739C65.7836 35.923 66.0887 35.9962 66.4511 35.9962L66.4484 35.9935C66.789 35.9935 67.1077 35.9366 67.4047 35.8227C67.699 35.7088 67.9279 35.5488 68.0859 35.3373H68.1676L67.9796 35.9122H68.8106L70.4917 31.6361H69.5872L69.2302 32.4631H69.1485C69.0995 32.192 68.9442 31.9778 68.6853 31.8151C68.4265 31.6524 68.1022 31.571 67.7126 31.571C67.3884 31.571 67.0832 31.6226 66.7971 31.7256C66.511 31.8286 66.2495 31.9859 66.0152 32.2001C65.7781 32.4143 65.5738 32.6828 65.3994 33.0027C65.225 33.3254 65.0915 33.7077 64.9961 34.1497L64.9852 34.2066C64.909 34.5673 64.9199 34.8818 65.0207 35.1502C65.1215 35.4187 65.2931 35.6247 65.5383 35.7739ZM67.9578 35.0065C67.6935 35.1963 67.3611 35.2912 66.9606 35.2912L66.9633 35.2939C66.6582 35.2939 66.4184 35.237 66.2386 35.1204C66.0615 35.0038 65.9525 34.8411 65.9171 34.6296C65.8789 34.4181 65.9171 34.1687 66.0288 33.8758L66.2822 33.2196C66.3639 33.0081 66.4783 32.8346 66.6255 32.6963C66.7726 32.558 66.9415 32.4523 67.1377 32.3764C67.3339 32.3004 67.5382 32.2625 67.7562 32.2625C68.0559 32.2625 68.2984 32.3194 68.4891 32.436C68.6799 32.5526 68.7997 32.7126 68.8542 32.9214C68.906 33.1274 68.876 33.3715 68.7616 33.6535L68.5382 34.2364C68.4128 34.5618 68.2194 34.8167 67.9578 35.0065ZM70.0754 35.9149L72.3887 30.012H73.3232L71.01 35.9149H70.0754ZM73.1754 35.8307C73.4833 35.9418 73.8729 35.9961 74.3388 35.9961H74.3334C74.7693 35.9961 75.148 35.9473 75.4695 35.8469C75.791 35.7466 76.0526 35.6029 76.2542 35.4104C76.4531 35.2206 76.5866 34.982 76.6466 34.6945C76.6902 34.4966 76.6875 34.3231 76.6439 34.1767C76.6003 34.0329 76.5158 33.9082 76.3905 33.8052C76.2679 33.7021 76.1071 33.6181 75.9082 33.553C75.7093 33.4879 75.4777 33.4337 75.2107 33.3903C74.9655 33.3469 74.7611 33.3008 74.5949 33.2493C74.4314 33.1978 74.3116 33.1354 74.238 33.0595C74.1644 32.9836 74.1426 32.8806 74.1699 32.7504C74.208 32.5742 74.3197 32.4332 74.505 32.3301C74.6903 32.2271 74.9355 32.1756 75.2379 32.1756C75.4723 32.1756 75.6712 32.1973 75.8346 32.2434C75.9981 32.2895 76.1235 32.36 76.2079 32.4549C76.2951 32.5498 76.3332 32.6691 76.3223 32.8155H77.2269C77.2542 32.566 77.2051 32.3491 77.0798 32.1593C76.9545 31.9695 76.7528 31.8231 76.4749 31.7173C76.197 31.6116 75.8374 31.5601 75.3987 31.5601C75.0254 31.5601 74.6848 31.6116 74.377 31.7146C74.0691 31.8177 73.8157 31.9641 73.6141 32.1566C73.4152 32.3464 73.2844 32.5769 73.2272 32.848C73.1917 33.0053 73.1945 33.149 73.2353 33.2819C73.2735 33.4147 73.3525 33.5259 73.4724 33.6181C73.5923 33.7103 73.7421 33.7889 73.9219 33.8567C74.1018 33.9245 74.3143 33.9814 74.5595 34.0302C74.6067 34.0392 74.6524 34.0479 74.6968 34.0564C74.8395 34.0835 74.9677 34.1078 75.0799 34.1306C75.227 34.1604 75.3524 34.1983 75.4532 34.2444C75.554 34.2905 75.6248 34.3529 75.6657 34.4315C75.7066 34.5102 75.712 34.6132 75.6848 34.7434C75.6412 34.9549 75.5186 35.1121 75.3197 35.2179C75.1208 35.3236 74.851 35.3751 74.5159 35.3751C74.1345 35.3751 73.8266 35.3155 73.5895 35.1935C73.3525 35.0714 73.2517 34.8844 73.2898 34.6295L72.3961 34.6213C72.3416 34.9006 72.3825 35.1447 72.5133 35.3534C72.6441 35.5595 72.8648 35.7195 73.1754 35.8307Z" fill="#000000"/>
<path d="M94.046 0.338566L92.5043 6.81477C92.4509 7.04516 92.6168 7.26712 92.8532 7.27836L111.716 8.19149C111.877 8.19711 112 8.32916 112 8.48931C112 8.64946 111.874 8.77871 111.714 8.78714L92.0626 9.70308C91.6997 9.71993 91.3734 9.93066 91.2102 10.2566L87.8989 16.8339C87.7527 17.1205 87.3166 16.9632 87.3869 16.6485L88.8217 10.1667C88.8723 9.93909 88.7064 9.71993 88.4729 9.70869L69.6209 8.79275C69.4606 8.78433 69.334 8.65508 69.334 8.49493C69.334 8.33478 69.4606 8.20554 69.6181 8.19711L89.2634 7.28117C89.6207 7.26431 89.9442 7.05921 90.1102 6.73891L93.534 0.15032C93.6803 -0.136262 94.1163 0.0210771 94.046 0.335756V0.338566Z" fill="url(#svg343895481_9905_paint0_linear_60_1087)"/>
<defs fill="#000000">
<linearGradient id="svg343895481_9905_paint0_linear_60_1087" x1="69.334" y1="0" x2="113.369" y2="5.05217" gradientUnits="userSpaceOnUse" fill="#000000">
<stop stop-color="#05F4C4" fill="#000000"/>
<stop offset="1" stop-color="#6DFF7C" fill="#000000"/>
</linearGradient>
</defs>
</svg>