<svg xmlns="http://www.w3.org/2000/svg" width="101" height="36" viewBox="0 0 101 36" fill="none"><path d="M9.13632 23.4121C7.40367 23.4121 5.87873 23.2456 4.56151 22.9126C3.25442 22.5797 2.03852 22.166 0.913818 21.6717V16.3143H1.43057C2.56541 17.2728 3.81677 18.0093 5.18465 18.5238C6.55254 19.0384 7.87989 19.2956 9.16672 19.2956C9.49096 19.2956 9.91652 19.2603 10.4434 19.1897C10.9804 19.1191 11.4111 19.0081 11.7353 18.8568C12.1305 18.6853 12.4648 18.4482 12.7384 18.1455C13.012 17.8327 13.1488 17.4241 13.1488 16.9196C13.1488 16.3546 12.9259 15.8956 12.48 15.5425C12.0342 15.1893 11.5023 14.9321 10.8842 14.7706C10.1141 14.5688 9.28831 14.3772 8.40678 14.1955C7.53539 14.0139 6.71972 13.792 5.95979 13.5297C4.20687 12.9142 2.95044 12.0869 2.19051 11.0477C1.43057 10.0085 1.05061 8.707 1.05061 7.14317C1.05061 5.03452 1.94733 3.32945 3.74078 2.02794C5.53422 0.716335 7.7735 0.0605354 10.4586 0.0605354C11.8062 0.0605354 13.1437 0.19674 14.4711 0.469149C15.8086 0.741558 17.7818 1.22122 18.8355 1.68533V6.81746H18.0426C17.2016 6.10112 15.687 5.39774 14.4711 4.90337C13.2653 4.40899 12.0241 4.16181 10.7474 4.16181C10.2509 4.16181 9.80506 4.19712 9.40989 4.26774C9.01473 4.33837 8.5993 4.47457 8.1636 4.67636C7.80896 4.83778 7.49992 5.07993 7.23648 5.40278C6.98317 5.71555 6.85651 6.06867 6.85651 6.46215C6.85651 7.03724 7.05916 7.4963 7.46446 7.83933C7.87989 8.17227 8.67529 8.47495 9.85066 8.74736C10.6106 8.91888 11.3401 9.08535 12.0393 9.24678C12.7485 9.40821 13.5034 9.63017 14.3039 9.91267C15.8744 10.4777 17.0396 11.2394 17.7996 12.1979C18.5696 13.1463 18.9547 14.4024 18.9547 15.9662C18.9547 18.206 18.0681 20.0069 16.2949 21.369C14.5319 22.731 12.1457 23.4121 9.13632 23.4121Z" fill="#000000"/><path d="M41.8597 11.7439C41.8597 15.3861 40.882 18.2514 38.9264 20.3399C36.9708 22.4284 34.2908 23.4726 30.8863 23.4726C27.4716 23.4726 24.7916 22.4183 22.8462 20.3096C20.9007 18.1909 19.928 15.3356 19.928 11.7439C19.928 8.12183 20.9007 5.26153 22.8462 3.16297C24.7916 1.05432 27.4716 0 30.8863 0C34.2908 0 36.9708 1.04928 38.9264 3.14784C40.882 5.23631 41.8597 8.10165 41.8597 11.7439ZM35.993 11.7287C35.993 10.3869 35.8512 9.24678 35.5675 8.30848C35.2939 7.36009 34.9241 6.58322 34.458 5.97787C33.9716 5.36242 33.4194 4.92354 32.8013 4.66122C32.1934 4.38881 31.5601 4.25261 30.9015 4.25261C30.2023 4.25261 29.5691 4.37873 29.0016 4.63096C28.4342 4.8731 27.8871 5.31198 27.3602 5.9476C26.8941 6.53278 26.5141 7.30965 26.2203 8.27821C25.9366 9.24678 25.7947 10.402 25.7947 11.7439C25.7947 13.1261 25.9315 14.2763 26.2051 15.1944C26.4786 16.1024 26.8535 16.8641 27.3298 17.4796C27.8161 18.1051 28.3684 18.5541 28.9864 18.8265C29.6045 19.0888 30.2429 19.22 30.9015 19.22C31.5702 19.22 32.2187 19.0787 32.8469 18.7962C33.4751 18.5036 34.0172 18.0547 34.4732 17.4493C34.9595 16.7935 35.3344 16.0318 35.5979 15.1641C35.8613 14.2863 35.993 13.1412 35.993 11.7287Z" fill="#000000"/><path d="M59.7188 23.0034H44.6113V0.469149H50.2956V18.7054H59.7188V23.0034Z" fill="#000000"/><path d="M70.9513 23.4726C67.9115 23.4726 65.5709 22.7411 63.9295 21.2782C62.2982 19.8152 61.4825 17.6763 61.4825 14.8614V0.469149H67.1668V14.5285C67.1668 16.0923 67.4606 17.2576 68.0483 18.0244C68.6461 18.7912 69.6138 19.1746 70.9513 19.1746C72.2584 19.1746 73.2159 18.8063 73.8238 18.0698C74.4419 17.3333 74.751 16.1529 74.751 14.5285V0.469149H80.4353V14.8463C80.4353 17.6208 79.6348 19.7547 78.0339 21.2479C76.4431 22.731 74.0822 23.4726 70.9513 23.4726Z" fill="#000000"/><path d="M91.1814 23.4121C89.4487 23.4121 87.9238 23.2456 86.6066 22.9126C85.2995 22.5797 84.0836 22.166 82.9589 21.6717V16.3143H83.4756C84.6105 17.2728 85.8618 18.0093 87.2297 18.5238C88.5976 19.0384 89.9249 19.2956 91.2118 19.2956C91.536 19.2956 91.9616 19.2603 92.4885 19.1897C93.0255 19.1191 93.4561 19.0081 93.7803 18.8568C94.1755 18.6853 94.5099 18.4482 94.7835 18.1455C95.057 17.8327 95.1938 17.4241 95.1938 16.9196C95.1938 16.3546 94.9709 15.8956 94.5251 15.5425C94.0793 15.1893 93.5473 14.9321 92.9292 14.7706C92.1591 14.5688 91.3334 14.3772 90.4518 14.1955C89.5804 14.0139 88.7648 13.792 88.0048 13.5297C86.2519 12.9142 84.9955 12.0869 84.2356 11.0477C83.4756 10.0085 83.0956 8.707 83.0956 7.14317C83.0956 5.03452 83.9924 3.32945 85.7858 2.02794C87.5793 0.716335 89.8185 0.0605354 92.5036 0.0605354C93.8513 0.0605354 95.1888 0.19674 96.5161 0.469149C97.8536 0.741558 99.4548 1.22122 100.509 1.68533V6.71943H99.7156C98.8746 6.00309 97.732 5.39774 96.5161 4.90337C95.3103 4.40899 94.0691 4.16181 92.7924 4.16181C92.2959 4.16181 91.8501 4.19712 91.4549 4.26774C91.0598 4.33837 90.6443 4.47457 90.2086 4.67636C89.854 4.83778 89.545 5.07993 89.2815 5.40278C89.0282 5.71555 88.9016 6.06867 88.9016 6.46215C88.9016 7.03724 89.1042 7.4963 89.5095 7.83933C89.9249 8.17227 90.7203 8.47495 91.8957 8.74736C92.6556 8.91888 93.3852 9.08535 94.0843 9.24678C94.7936 9.40821 95.5485 9.63017 96.3489 9.91267C97.9195 10.4777 99.0847 11.2394 99.8446 12.1979C100.615 13.1463 101 14.4024 101 15.9662C101 18.206 100.113 20.0069 98.34 21.369C96.5769 22.731 94.1907 23.4121 91.1814 23.4121Z" fill="#000000"/><line y1="-0.31332" x2="43.6506" y2="-0.31332" transform="matrix(1 -1.22715e-07 -6.79896e-08 -1 1.00024 34.8125)" stroke="url(#paint0_linear_644_179)" stroke-width="0.62664" fill="#000000"/><line y1="-0.31332" x2="43.6506" y2="-0.31332" transform="matrix(1 -1.2279e-07 -6.79665e-08 -1 1.00024 30.3296)" stroke="url(#paint1_linear_644_179)" stroke-width="0.62664" fill="#000000"/><line y1="-0.31332" x2="43.6506" y2="-0.31332" transform="matrix(1 -1.22715e-07 -6.79896e-08 -1 1.00024 32.5713)" stroke="url(#paint2_linear_644_179)" stroke-width="0.62664" fill="#000000"/><path d="M55.1114 29.397V34.1422H54.5095V33.3267C54.2536 33.6378 53.9657 33.8718 53.6459 34.0288C53.3289 34.1858 52.9814 34.2644 52.6034 34.2644C51.9318 34.2644 51.3575 34.0216 50.8806 33.536C50.4067 33.0475 50.1697 32.4544 50.1697 31.7565C50.1697 31.0733 50.4096 30.4888 50.8893 30.0033C51.3691 29.5177 51.9463 29.2749 52.6209 29.2749C53.0105 29.2749 53.3624 29.3578 53.6764 29.5235C53.9933 29.6892 54.271 29.9378 54.5095 30.2693V29.397H55.1114ZM52.6689 29.8637C52.3287 29.8637 52.0146 29.948 51.7268 30.1167C51.4389 30.2824 51.2092 30.5165 51.0376 30.8188C50.869 31.1212 50.7847 31.4411 50.7847 31.7784C50.7847 32.1127 50.8704 32.4326 51.042 32.7379C51.2136 33.0432 51.4433 33.2816 51.7311 33.4531C52.0219 33.6218 52.333 33.7061 52.6645 33.7061C52.9989 33.7061 53.3158 33.6218 53.6153 33.4531C53.9148 33.2845 54.1445 33.0562 54.3045 32.7684C54.4673 32.4805 54.5487 32.1563 54.5487 31.7958C54.5487 31.2463 54.367 30.7869 54.0035 30.4176C53.643 30.0483 53.1981 29.8637 52.6689 29.8637Z" fill="#000000"/><path d="M64.0601 29.397H64.6751V33.1784C64.6751 33.8442 64.617 34.3312 64.5006 34.6394C64.3407 35.0756 64.063 35.4114 63.6676 35.6469C63.2721 35.8824 62.7967 36.0002 62.2413 36.0002C61.8343 36.0002 61.4679 35.942 61.1422 35.8257C60.8195 35.7123 60.5563 35.5582 60.3528 35.3634C60.1492 35.1715 59.9617 34.8895 59.7901 34.5173H60.4531C60.6334 34.8313 60.866 35.0639 61.1509 35.2151C61.4359 35.3663 61.7892 35.4419 62.2108 35.4419C62.6266 35.4419 62.977 35.3634 63.262 35.2064C63.5498 35.0523 63.7548 34.8575 63.8769 34.622C63.9991 34.3865 64.0601 34.007 64.0601 33.4837V33.2394C63.8304 33.5302 63.5498 33.7541 63.2183 33.9111C62.8869 34.0652 62.535 34.1422 62.1628 34.1422C61.7267 34.1422 61.3167 34.0347 60.9329 33.8195C60.549 33.6014 60.2525 33.3092 60.0431 32.9428C59.8337 32.5765 59.7291 32.1738 59.7291 31.7347C59.7291 31.2957 59.8381 30.8872 60.0562 30.5092C60.2743 30.1283 60.5752 29.8273 60.959 29.6064C61.3458 29.3854 61.7528 29.2749 62.1803 29.2749C62.535 29.2749 62.865 29.349 63.1704 29.4973C63.4786 29.6427 63.7752 29.884 64.0601 30.2213V29.397ZM62.2588 29.8637C61.9128 29.8637 61.5915 29.948 61.2949 30.1167C60.9983 30.2824 60.7657 30.5135 60.597 30.8101C60.4284 31.1038 60.344 31.4222 60.344 31.7653C60.344 32.2857 60.5185 32.7161 60.8674 33.0562C61.2164 33.3964 61.6685 33.5665 62.2239 33.5665C62.7851 33.5665 63.2358 33.3979 63.576 33.0606C63.9191 32.7233 64.0907 32.2799 64.0907 31.7304C64.0907 31.3727 64.0121 31.0544 63.8551 30.7752C63.6981 30.4932 63.4757 30.2708 63.1878 30.1079C62.8999 29.9451 62.5903 29.8637 62.2588 29.8637Z" fill="#000000"/><path d="M73.4625 32.5678L73.9772 32.8382C73.8085 33.1696 73.6137 33.4371 73.3927 33.6407C73.1717 33.8442 72.9231 33.9998 72.6469 34.1073C72.3706 34.212 72.0581 34.2644 71.7091 34.2644C70.9357 34.2644 70.3309 34.0114 69.8947 33.5055C69.4585 32.9966 69.2405 32.4224 69.2405 31.7827C69.2405 31.1808 69.4251 30.6444 69.7944 30.1734C70.2625 29.5744 70.8892 29.2749 71.6742 29.2749C72.4826 29.2749 73.1281 29.5817 73.6108 30.1952C73.9539 30.6284 74.1284 31.1692 74.1342 31.8176H69.8685C69.8802 32.37 70.0561 32.8236 70.3963 33.1784C70.7365 33.5302 71.1567 33.7061 71.6568 33.7061C71.8981 33.7061 72.1322 33.6639 72.359 33.5796C72.5887 33.4953 72.7835 33.3833 72.9435 33.2438C73.1034 33.1042 73.2764 32.8789 73.4625 32.5678ZM73.4625 31.2899C73.3811 30.9642 73.2619 30.704 73.1048 30.5092C72.9507 30.3144 72.7457 30.1574 72.4899 30.0381C72.234 29.9189 71.965 29.8593 71.683 29.8593C71.2177 29.8593 70.8179 30.0091 70.4835 30.3086C70.2393 30.5266 70.0546 30.8537 69.9296 31.2899H73.4625Z" fill="#000000"/><path d="M78.7606 29.397H79.3712V30.2475C79.6155 29.9218 79.8859 29.6791 80.1825 29.5191C80.4791 29.3563 80.8018 29.2749 81.1508 29.2749C81.5055 29.2749 81.8195 29.365 82.0929 29.5453C82.3691 29.7256 82.5726 29.9684 82.7035 30.2737C82.8343 30.579 82.8997 31.0544 82.8997 31.6998V34.1422H82.2935V31.8787C82.2935 31.332 82.2702 30.9671 82.2237 30.7839C82.151 30.4699 82.0143 30.2344 81.8137 30.0774C81.6131 29.9175 81.3514 29.8375 81.0286 29.8375C80.6593 29.8375 80.3279 29.9596 80.0342 30.2039C79.7434 30.4481 79.5515 30.7505 79.4585 31.1111C79.4003 31.3466 79.3712 31.7769 79.3712 32.402V34.1422H78.7606V29.397Z" fill="#000000"/><path d="M92.3021 30.3827L91.818 30.6836C91.3993 30.1283 90.8279 29.8506 90.1039 29.8506C89.5252 29.8506 89.044 30.0367 88.6602 30.4089C88.2793 30.781 88.0888 31.2332 88.0888 31.7653C88.0888 32.1113 88.1761 32.4369 88.3505 32.7422C88.5279 33.0475 88.7692 33.2845 89.0745 33.4531C89.3828 33.6218 89.7273 33.7061 90.1082 33.7061C90.8061 33.7061 91.376 33.4284 91.818 32.8731L92.3021 33.1914C92.0753 33.5316 91.77 33.7962 91.3862 33.9852C91.0053 34.1713 90.5706 34.2644 90.0821 34.2644C89.3319 34.2644 88.7096 34.0259 88.2153 33.5491C87.721 33.0722 87.4738 32.4922 87.4738 31.8089C87.4738 31.3495 87.5887 30.9235 87.8184 30.531C88.051 30.1356 88.3694 29.8273 88.7736 29.6064C89.1778 29.3854 89.6299 29.2749 90.13 29.2749C90.4441 29.2749 90.7465 29.3229 91.0373 29.4188C91.3309 29.5148 91.5795 29.6398 91.7831 29.7939C91.9866 29.948 92.1596 30.1443 92.3021 30.3827Z" fill="#000000"/><path d="M96.4531 29.397H97.0986L98.7299 33.0519L100.313 29.397H100.963L98.1323 35.8781H97.4868L98.4028 33.7846L96.4531 29.397Z" fill="#000000"/><defs fill="#000000"><linearGradient id="paint0_linear_644_179" x1="44.4032" y1="-0.500001" x2="-3.70569e-08" y2="-0.499998" gradientUnits="userSpaceOnUse" fill="#000000"><stop stop-color="#FFC500" fill="#000000"/><stop offset="1" stop-color="#C31100" fill="#000000"/></linearGradient><linearGradient id="paint1_linear_644_179" x1="44.4032" y1="-0.500001" x2="-3.70569e-08" y2="-0.499998" gradientUnits="userSpaceOnUse" fill="#000000"><stop stop-color="#62F11E" fill="#000000"/><stop offset="1" stop-color="#005F15" fill="#000000"/></linearGradient><linearGradient id="paint2_linear_644_179" x1="43.6506" y1="-0.499998" x2="-2.93166e-08" y2="-0.499996" gradientUnits="userSpaceOnUse" fill="#000000"><stop stop-color="#15C0D8" fill="#000000"/><stop offset="1" stop-color="#231071" fill="#000000"/></linearGradient></defs></svg>