<svg xmlns="http://www.w3.org/2000/svg" width="141" height="36" viewBox="0 0 141 36" fill="none">
  <path d="M15.982 12.699L14.1052 16.1152L10.6738 17.9829L14.1052 19.8507L15.982 23.2655L17.8587 19.8507L21.2901 17.9829L17.8587 16.1152L15.982 12.699Z" fill="#000000"/>
  <path d="M30.2825 17.9966C31.7836 15.3526 32.2895 12.1655 31.6479 9.05628L31.6561 9.05082C31.6561 9.05082 31.6493 9.044 31.6451 9.04127C31.6451 9.03581 31.6438 9.03172 31.6424 9.02626L31.6342 9.03172C29.2433 6.90203 26.2013 5.73282 23.1305 5.70417C21.5772 3.06151 19.0383 1.01368 15.9853 0.00955016V0C15.9853 0 15.9757 0.00272862 15.9716 0.00545723C15.9675 0.00409292 15.962 0.00272862 15.9579 0V0.00955016C12.9049 1.01368 10.3646 3.06287 8.81004 5.7069C5.72825 5.73419 2.67525 6.91159 0.280287 9.05355L0.272062 9.04809C0.272062 9.04809 0.270691 9.05764 0.26932 9.0631C0.265207 9.06583 0.262466 9.06992 0.258353 9.07265L0.266578 9.07811C-0.365407 12.1846 0.144568 15.3635 1.64571 18.002C0.144568 20.6474 -0.361295 23.8331 0.280287 26.9437L0.272062 26.9492C0.272062 26.9492 0.280287 26.956 0.283029 26.9587C0.283029 26.9642 0.2844 26.9683 0.285771 26.9737L0.293996 26.9683C2.68485 29.098 5.72825 30.2672 8.7977 30.2958C10.3509 32.9385 12.8912 34.9863 15.9428 35.9904V36C15.9428 36 15.9524 35.9973 15.9565 35.9945C15.962 35.9959 15.9661 35.9973 15.9703 36V35.9904C19.0246 34.9863 21.5635 32.9371 23.1181 30.2931C26.1999 30.2658 29.2529 29.0884 31.6479 26.9464L31.6561 26.9519C31.6561 26.9519 31.6575 26.9424 31.6589 26.9369C31.663 26.9342 31.6671 26.9301 31.6698 26.9273L31.6616 26.9219C32.2936 23.8154 31.7836 20.6365 30.2825 17.998M30.4703 9.71524C30.8953 12.1969 30.5169 14.6581 29.4819 16.7687C28.5154 15.4644 27.2747 14.3416 25.7832 13.493C25.435 13.2952 25.0813 13.1165 24.7207 12.9568C24.7605 12.5612 24.7824 12.1601 24.7824 11.7535C24.7824 10.0713 24.4301 8.46826 23.7926 7.00572C26.215 7.17353 28.5497 8.11627 30.4689 9.71387M23.4869 24.2478C23.4869 25.9287 23.0852 27.544 22.3587 29.0011C20.7108 28.9015 19.1028 28.4281 17.6715 27.615C17.4399 27.484 17.215 27.3435 16.9957 27.1948C17.9951 26.2902 18.8204 25.2342 19.4578 24.08C19.573 24.0828 19.6895 24.0855 19.8047 24.0855C21.0344 24.0855 22.2668 23.9013 23.4622 23.5234C23.4787 23.7649 23.4869 24.0064 23.4869 24.2492M19.8047 22.8112C19.7005 22.8112 19.5977 22.8099 19.4935 22.8071L18.7121 22.7853L18.3364 23.4675C17.7195 24.5862 16.9134 25.578 15.962 26.4035C15.0079 25.5767 14.2018 24.5835 13.5835 23.4634L13.2079 22.7812L12.4265 22.803C12.3223 22.8058 12.2195 22.8071 12.1153 22.8071C10.9212 22.8071 9.74088 22.6093 8.62222 22.23C8.86625 20.9749 9.33646 19.7634 10.0192 18.6556L10.4277 17.9925L10.0205 17.3281C9.34469 16.2244 8.87858 15.0183 8.63593 13.7686C9.75185 13.3907 10.9308 13.1929 12.1221 13.1929C12.2263 13.1929 12.3305 13.1929 12.4333 13.197L13.2147 13.2188L13.5904 12.5366C14.2073 11.4179 15.0134 10.426 15.9648 9.60064C16.9189 10.4274 17.725 11.4206 18.3433 12.5407L18.7189 13.2229L19.5003 13.201C19.6045 13.1983 19.7073 13.197 19.8115 13.197C21.0056 13.197 22.1859 13.3948 23.3032 13.7741C23.0592 15.0292 22.589 16.2407 21.9076 17.3485L21.4991 18.013L21.9063 18.6774C22.5821 19.7811 23.0482 20.9872 23.2909 22.2369C22.175 22.6161 20.996 22.8126 19.8047 22.8126M8.42344 24.2506C8.42344 24.0064 8.43167 23.7622 8.44949 23.5179C9.64766 23.8972 10.8815 24.0828 12.1139 24.0828C12.2291 24.0828 12.3456 24.0814 12.4607 24.0773C13.0996 25.2342 13.9262 26.2916 14.9284 27.1975C14.7131 27.3421 14.4938 27.4799 14.269 27.6081C12.8309 28.4295 11.2132 28.9083 9.55444 29.0066C8.82649 27.5495 8.42344 25.9314 8.42344 24.2492M7.41172 21.7362C7.19649 21.6325 6.98537 21.522 6.77836 21.4046C5.28819 20.5574 4.06123 19.3855 3.14684 18.0061C4.05712 16.6296 5.2786 15.459 6.76328 14.609C6.97988 14.4849 7.2006 14.3703 7.42406 14.2625C7.71195 15.5954 8.22603 16.8506 8.92382 17.9911C8.21918 19.1358 7.70098 20.3964 7.41035 21.7375M8.43578 11.7562C8.43578 10.0754 8.83746 8.46008 9.56403 7.00299C11.2119 7.10122 12.8199 7.576 14.2511 8.38913C14.4828 8.5201 14.7077 8.66063 14.927 8.80934C13.9276 9.71387 13.1023 10.7698 12.4649 11.9241C12.3497 11.9213 12.2332 11.9186 12.118 11.9186C10.8883 11.9186 9.65588 12.1028 8.46046 12.4807C8.44401 12.2392 8.43578 11.9977 8.43578 11.7549M23.4993 11.7549C23.4993 11.9991 23.491 12.2433 23.4732 12.4875C22.275 12.1082 21.0412 11.9227 19.8102 11.9227C19.695 11.9227 19.5785 11.9241 19.4633 11.9281C18.8245 10.7712 17.9978 9.71387 16.9957 8.80797C17.2109 8.66336 17.4303 8.52556 17.6551 8.39732C19.0932 7.57464 20.7108 7.09713 22.3696 6.9989C23.0976 8.45598 23.5006 10.0741 23.5006 11.7562M22.9989 18.0157C23.7035 16.871 24.2217 15.6104 24.5123 14.2693C24.7276 14.373 24.9387 14.4835 25.1457 14.6008C26.6359 15.4481 27.8628 16.62 28.7772 17.9993C27.8669 19.3759 26.6455 20.5478 25.1608 21.3964C24.9442 21.5206 24.7235 21.6352 24.5 21.743C24.2121 20.41 23.698 19.1549 23.0002 18.0143M15.9716 1.35476C18.3693 2.23337 20.3407 3.80642 21.665 5.77784C20.0679 5.9552 18.4913 6.44908 17.0217 7.2895C16.6543 7.4996 16.302 7.72608 15.9661 7.96892C15.6234 7.72335 15.2656 7.49278 14.8914 7.27995C13.43 6.44908 11.8617 5.9593 10.2769 5.78194C11.6012 3.80778 13.5739 2.23337 15.973 1.35476M1.44555 9.73434C3.3703 8.12445 5.71317 7.1749 8.14652 7.00845C7.51042 8.46962 7.1581 10.0713 7.1581 11.7522C7.1581 12.156 7.18004 12.5544 7.21979 12.9486C6.84965 13.1124 6.48499 13.2965 6.12718 13.5012C4.64113 14.3512 3.40594 15.4726 2.44357 16.7728C1.40854 14.6663 1.02743 12.2119 1.44555 9.73297M1.45789 26.2848C1.03291 23.8031 1.41128 21.3419 2.44631 19.2313C3.4128 20.5356 4.65346 21.6584 6.14501 22.507C6.49321 22.7048 6.84691 22.8835 7.20608 23.0432C7.16633 23.4388 7.14439 23.8399 7.14439 24.2465C7.14439 25.9287 7.49671 27.5317 8.13418 28.9943C5.7118 28.8265 3.37715 27.8837 1.45789 26.2861M15.9565 34.6452C13.5588 33.7666 11.5875 32.1936 10.2632 30.2222C11.8603 30.0448 13.4368 29.5509 14.9064 28.7105C15.2738 28.5004 15.6262 28.2739 15.962 28.0311C16.3048 28.2767 16.6626 28.5072 17.0368 28.7201C18.4982 29.5509 20.0651 30.0407 21.6513 30.2181C20.327 32.1922 18.3543 33.7666 15.9552 34.6452M30.4799 26.2657C28.5551 27.8755 26.2123 28.8251 23.7789 28.9915C24.415 27.5304 24.7673 25.9287 24.7673 24.2478C24.7673 23.844 24.7454 23.4456 24.7056 23.0514C25.0758 22.8876 25.4404 22.7035 25.7983 22.4988C27.2843 21.6488 28.5195 20.5274 29.4819 19.2272C30.5169 21.3337 30.898 23.7881 30.4799 26.267" fill="#000000"/>
  <path d="M91.1066 28.3135C91.1902 28.1279 91.304 27.971 91.4452 27.8428C91.5864 27.7132 91.7509 27.6136 91.936 27.544C92.1211 27.4731 92.3157 27.439 92.52 27.439C92.7243 27.439 92.9176 27.4744 93.1026 27.544C93.2891 27.615 93.4522 27.7146 93.5934 27.8428C93.7346 27.9724 93.8484 28.1293 93.932 28.3135C94.0156 28.4977 94.0581 28.7037 94.0581 28.9302C94.0581 29.1566 94.0156 29.3613 93.932 29.5441C93.8484 29.7283 93.7346 29.8852 93.5934 30.0148C93.4522 30.1444 93.2877 30.2453 93.1026 30.3163C92.9176 30.3872 92.7229 30.4213 92.52 30.4213C92.3171 30.4213 92.1224 30.3859 91.936 30.3163C91.7495 30.2453 91.5864 30.1458 91.4452 30.0148C91.304 29.8838 91.1902 29.7269 91.1066 29.5441C91.023 29.3599 90.9805 29.1553 90.9805 28.9302C90.9805 28.705 91.023 28.499 91.1066 28.3135ZM91.4781 29.4008C91.5371 29.5441 91.6166 29.6682 91.7194 29.7719C91.8208 29.8756 91.9401 29.9575 92.0786 30.0161C92.2156 30.0748 92.3637 30.1035 92.5214 30.1035C92.679 30.1035 92.823 30.0748 92.9601 30.0161C93.0971 29.9575 93.2178 29.877 93.3192 29.7719C93.4207 29.6682 93.5016 29.5441 93.5619 29.4008C93.6222 29.2576 93.6524 29.1007 93.6524 28.9302C93.6524 28.7596 93.6222 28.6027 93.5619 28.4595C93.5016 28.3162 93.4207 28.1921 93.3192 28.0884C93.2178 27.9847 93.0985 27.9028 92.9601 27.8442C92.8216 27.7855 92.6763 27.7568 92.5214 27.7568C92.3664 27.7568 92.2156 27.7855 92.0786 27.8442C91.9401 27.9028 91.8208 27.9833 91.7194 28.0884C91.6179 28.1921 91.5371 28.3162 91.4781 28.4595C91.4192 28.6027 91.3904 28.7596 91.3904 28.9302C91.3904 29.1007 91.4192 29.2576 91.4781 29.4008ZM93.3069 29.1771C93.2904 29.2781 93.2603 29.3667 93.2164 29.4445C93.1725 29.5223 93.1177 29.5878 93.0519 29.6423C92.9861 29.6969 92.9121 29.7378 92.8312 29.7665C92.7503 29.7951 92.6653 29.8088 92.5762 29.8088C92.4446 29.8088 92.3267 29.7856 92.2211 29.7406C92.1156 29.6955 92.0251 29.6328 91.9497 29.5523C91.8743 29.4718 91.8167 29.379 91.7756 29.2712C91.7345 29.1635 91.7139 29.0475 91.7139 28.922C91.7139 28.7965 91.7331 28.6764 91.7715 28.5672C91.8099 28.4581 91.8661 28.364 91.9401 28.2835C92.0141 28.2043 92.1032 28.1416 92.2088 28.0952C92.3144 28.0502 92.4336 28.027 92.568 28.027C92.6584 28.027 92.7462 28.0406 92.8284 28.0665C92.9107 28.0938 92.9847 28.132 93.0492 28.1839C93.1136 28.2357 93.1671 28.2998 93.2095 28.3776C93.252 28.4554 93.2808 28.5441 93.2932 28.645H92.9806C92.9587 28.5522 92.9107 28.4786 92.8367 28.4254C92.7613 28.3722 92.6722 28.3462 92.568 28.3462C92.4158 28.3462 92.2993 28.3994 92.2198 28.5059C92.1389 28.6123 92.0991 28.7473 92.0991 28.9124C92.0991 28.9902 92.1101 29.0639 92.1334 29.1334C92.1567 29.2044 92.1882 29.2644 92.2294 29.3176C92.2705 29.3708 92.3212 29.4104 92.3802 29.4418C92.4391 29.4718 92.5049 29.4882 92.5762 29.4882C92.6886 29.4882 92.7805 29.4609 92.8531 29.4049C92.9258 29.349 92.9683 29.274 92.982 29.1771H93.3069Z" fill="#000000"/>
  <path d="M54.0713 11.9664C53.8067 11.6839 53.4818 11.452 53.1034 11.2787C52.7237 11.1041 52.2946 11.0168 51.8285 11.0168H45.0192C44.8314 11.0168 44.6601 10.98 44.5079 10.909C44.353 10.8367 44.2173 10.7412 44.1062 10.6252C43.9952 10.5106 43.9088 10.3783 43.8499 10.2296C43.7895 10.0809 43.7594 9.92398 43.7594 9.763C43.7594 9.60201 43.7895 9.44375 43.8499 9.2964C43.9088 9.14769 43.9965 9.01126 44.1076 8.8912C44.2186 8.77251 44.353 8.67564 44.5079 8.60333C44.6601 8.53239 44.8328 8.49555 45.0192 8.49555H53.2995L53.7437 6.75879H45.0192C44.5614 6.75879 44.1377 6.84747 43.758 7.02074C43.3796 7.194 43.0547 7.42457 42.7901 7.70835C42.5269 7.99076 42.3199 8.3141 42.176 8.67018C42.032 9.02627 41.958 9.39463 41.958 9.763C41.958 10.1314 42.032 10.497 42.176 10.849C42.3199 11.201 42.5269 11.5216 42.7901 11.8026C43.0547 12.0864 43.3796 12.317 43.758 12.4902C44.1377 12.6635 44.5614 12.7522 45.0192 12.7522H51.8285C52.0163 12.7522 52.1877 12.789 52.3398 12.86C52.4934 12.9323 52.6291 13.0291 52.7401 13.1478C52.8526 13.2679 52.9389 13.4043 52.9979 13.553C53.0582 13.7018 53.0884 13.8586 53.0884 14.0196C53.0884 14.1806 53.0582 14.3375 52.9979 14.4862C52.9389 14.6336 52.8526 14.7673 52.7415 14.8819C52.6291 14.9978 52.4948 15.092 52.3398 15.1657C52.189 15.2366 52.0163 15.2734 51.8285 15.2734H43.562L43.1178 17.0238H51.8285C52.296 17.0238 52.7251 16.9365 53.1034 16.7619C53.4818 16.5886 53.8067 16.3581 54.0713 16.0743C54.3345 15.7919 54.5415 15.4685 54.6855 15.1124C54.8294 14.755 54.9034 14.388 54.9034 14.0196C54.9034 13.6513 54.8308 13.2843 54.6855 12.9268C54.5415 12.5707 54.3345 12.2474 54.0713 11.965" fill="#000000"/>
  <path d="M64.0746 12.0878L59.6932 6.76013H57.3037L63.1739 13.7877V17.0238H64.9753V13.7877L70.8455 6.76013H68.456L64.0746 12.0878Z" fill="#000000"/>
  <path d="M84.8349 14.534L75.2276 6.76013H73.6895V17.0238H75.4922V9.24999L85.0981 17.0238H86.6363V6.76013H84.8349V14.534Z" fill="#000000"/>
  <path d="M92.5875 12.7536H100.883L101.327 11.0168H90.7861V17.0239H103.357L103.801 15.2735H92.5875V12.7536Z" fill="#000000"/>
  <path d="M90.7861 8.49553H103.357L103.801 6.76013H90.7861V8.49553Z" fill="#000000"/>
  <path d="M118.637 11.9664C118.374 11.6839 118.048 11.452 117.669 11.2787C117.29 11.1041 116.86 11.0168 116.394 11.0168H109.584C109.396 11.0168 109.225 10.98 109.072 10.909C108.917 10.8367 108.783 10.7412 108.671 10.6252C108.56 10.5106 108.473 10.3783 108.414 10.2296C108.354 10.0809 108.324 9.92398 108.324 9.763C108.324 9.60201 108.354 9.44375 108.414 9.2964C108.475 9.14769 108.561 9.01126 108.672 8.8912C108.783 8.77251 108.917 8.67564 109.072 8.60333C109.225 8.53239 109.396 8.49555 109.584 8.49555H117.864L118.308 6.75879H109.584C109.126 6.75879 108.702 6.84747 108.322 7.02074C107.944 7.194 107.619 7.42457 107.355 7.70835C107.091 7.99076 106.884 8.3141 106.74 8.67018C106.596 9.02627 106.522 9.39463 106.522 9.763C106.522 10.1314 106.595 10.497 106.74 10.849C106.884 11.201 107.091 11.5216 107.355 11.8026C107.619 12.0864 107.944 12.317 108.322 12.4902C108.702 12.6635 109.126 12.7522 109.584 12.7522H116.394C116.582 12.7522 116.754 12.789 116.906 12.86C117.059 12.9323 117.195 13.0291 117.306 13.1478C117.418 13.2679 117.505 13.4043 117.564 13.553C117.624 13.7018 117.654 13.8586 117.654 14.0196C117.654 14.1806 117.624 14.3375 117.564 14.4862C117.505 14.6336 117.418 14.7673 117.307 14.8819C117.195 14.9978 117.061 15.092 116.906 15.1657C116.755 15.2366 116.582 15.2734 116.394 15.2734H108.128L107.684 17.0238H116.394C116.86 17.0238 117.291 16.9365 117.669 16.7619C118.048 16.5886 118.373 16.3581 118.637 16.0743C118.9 15.7919 119.107 15.4685 119.251 15.1124C119.395 14.755 119.469 14.388 119.469 14.0196C119.469 13.6513 119.397 13.2843 119.251 12.9268C119.107 12.5707 118.9 12.2474 118.637 11.965" fill="#000000"/>
  <path d="M125.135 6.76013H123.332V17.0252H125.135V6.76013Z" fill="#000000"/>
  <path d="M140.783 12.9282C140.639 12.5721 140.432 12.2488 140.169 11.9664C139.904 11.6839 139.579 11.452 139.201 11.2787C138.821 11.1041 138.392 11.0168 137.925 11.0168H131.114C130.926 11.0168 130.755 10.98 130.603 10.909C130.448 10.8367 130.312 10.7412 130.201 10.6252C130.09 10.5106 130.005 10.3783 129.945 10.2296C129.886 10.0822 129.854 9.92398 129.854 9.763C129.854 9.60201 129.884 9.44375 129.945 9.2964C130.005 9.14769 130.091 9.01126 130.202 8.89257C130.313 8.77387 130.448 8.67701 130.603 8.60333C130.755 8.53239 130.926 8.49555 131.114 8.49555H139.394L139.838 6.75879H131.114C130.656 6.75879 130.232 6.84747 129.853 7.02074C129.474 7.194 129.149 7.42457 128.885 7.70835C128.62 7.99076 128.413 8.3141 128.271 8.67018C128.127 9.02763 128.053 9.39463 128.053 9.763C128.053 10.1314 128.125 10.497 128.271 10.849C128.415 11.1996 128.622 11.5216 128.885 11.8026C129.148 12.085 129.474 12.317 129.853 12.4902C130.232 12.6635 130.656 12.7522 131.114 12.7522H137.925C138.112 12.7522 138.284 12.789 138.436 12.86C138.591 12.9323 138.724 13.0291 138.835 13.1478C138.947 13.2679 139.034 13.4043 139.093 13.553C139.153 13.7018 139.183 13.8586 139.183 14.0196C139.183 14.1806 139.153 14.3375 139.093 14.4862C139.034 14.6349 138.947 14.7673 138.836 14.8819C138.725 14.9965 138.589 15.092 138.435 15.1657C138.284 15.2366 138.111 15.2734 137.923 15.2734H129.657L129.213 17.0238H137.923C138.391 17.0238 138.82 16.9352 139.2 16.7619C139.578 16.5886 139.903 16.3581 140.167 16.0743C140.431 15.7919 140.638 15.4685 140.782 15.1124C140.926 14.755 141 14.3866 141 14.0196C141 13.6526 140.927 13.2856 140.782 12.9268" fill="#000000"/>
  <path d="M53.9397 21.5752C53.686 21.3037 53.3749 21.0826 53.0129 20.9162C52.6483 20.7497 52.237 20.6652 51.7901 20.6652H45.2769C44.8286 20.6652 44.4174 20.7497 44.0541 20.9162C43.6922 21.0826 43.3796 21.3037 43.126 21.5752C42.8737 21.8453 42.675 22.1563 42.5365 22.4974C42.398 22.8399 42.3281 23.1919 42.3281 23.5439V27.6245C42.3281 27.9765 42.398 28.3285 42.5365 28.6709C42.675 29.012 42.8724 29.3231 43.126 29.5932C43.3796 29.8647 43.6908 30.0857 44.0541 30.2522C44.4174 30.4186 44.8286 30.5032 45.2769 30.5032H51.7901C52.237 30.5032 52.6483 30.4186 53.0129 30.2522C53.3749 30.0857 53.6874 29.8647 53.9397 29.5932C54.1919 29.3231 54.3907 29.0134 54.5292 28.6709C54.6676 28.3285 54.7375 27.9765 54.7375 27.6245V23.5439C54.7375 23.1919 54.6676 22.8399 54.5292 22.4974C54.3907 22.1563 54.1933 21.8467 53.9397 21.5752ZM52.2795 28.7228C52.1342 28.791 51.9697 28.8251 51.7901 28.8251H45.2769C45.0973 28.8251 44.9315 28.7896 44.7862 28.7214C44.6381 28.6518 44.5079 28.5604 44.4009 28.4499C44.294 28.3394 44.209 28.2111 44.1473 28.0679C44.0856 27.9274 44.0555 27.7773 44.0555 27.6231V23.5425C44.0555 23.3897 44.0856 23.2396 44.1473 23.0977C44.209 22.9545 44.2954 22.8221 44.4023 22.7075C44.5079 22.5943 44.6367 22.5015 44.7848 22.4306C44.9301 22.3624 45.096 22.3269 45.2756 22.3269H51.7887C51.9683 22.3269 52.1328 22.3624 52.2781 22.4292C52.4262 22.4988 52.5551 22.5916 52.6606 22.7062C52.7689 22.8221 52.8539 22.9545 52.917 23.0977C52.9787 23.2396 53.0088 23.3883 53.0088 23.5425V27.6231C53.0088 27.7773 52.9773 27.926 52.917 28.0679C52.8553 28.2111 52.7703 28.3394 52.6634 28.4499C52.5564 28.5604 52.4276 28.6518 52.2781 28.7214" fill="#000000"/>
  <path d="M69.0258 28.1156L59.8188 20.6652H58.3438V30.5032H60.0711V23.0527L69.2781 30.5032H70.7532V20.6652H69.0258V28.1156Z" fill="#000000"/>
  <path d="M76.4559 26.409H84.4057L84.8321 24.7445H74.7285V30.5033H86.7774L87.2037 28.8252H76.4559V26.409Z" fill="#000000"/>
  <path d="M87.2037 20.6652H74.7285V22.3283H86.7774L87.2037 20.6652Z" fill="#000000"/>
</svg>