<svg xmlns="http://www.w3.org/2000/svg" width="176" height="68" viewBox="0 0 176 68" fill="none"><g clip-path="url(#clip0_308_17868)"><path d="M70.9335 20.9597H66.5518V16.993H79.8358V20.9597H75.4263V36.8264H70.9335V20.9597Z" fill="#000000"/><path d="M86.5053 37.1947C85.3613 37.1947 84.3282 37.0034 83.4131 36.6139C82.4979 36.2243 81.7214 35.7072 81.0835 35.0555C80.4456 34.4039 79.9534 33.6459 79.6137 32.7747C79.2739 31.9034 79.1006 30.9826 79.1006 29.998C79.1006 29.0134 79.2739 28.0926 79.6137 27.2214C79.9534 26.3501 80.4456 25.5922 81.0835 24.9405C81.7214 24.2889 82.4979 23.7718 83.4131 23.3822C84.3282 22.9926 85.3613 22.8014 86.5053 22.8014C87.6493 22.8014 88.71 22.9926 89.6252 23.3822C90.5404 23.7718 91.3169 24.2889 91.9548 24.9405C92.5926 25.5922 93.0849 26.3501 93.4246 27.2214C93.7644 28.0926 93.9377 29.0134 93.9377 29.998C93.9377 30.9826 93.7644 31.9034 93.4246 32.7747C93.0849 33.6459 92.5926 34.4039 91.9548 35.0555C91.3169 35.7072 90.5404 36.2243 89.6252 36.6139C88.71 37.0034 87.6701 37.1947 86.5053 37.1947ZM86.5053 33.483C86.9837 33.483 87.4274 33.3909 87.8226 33.2139C88.2178 33.0368 88.5575 32.7818 88.8348 32.463C89.1122 32.1443 89.3271 31.7759 89.4866 31.358C89.646 30.9401 89.7223 30.4868 89.7223 29.998C89.7223 29.5093 89.646 29.0772 89.4866 28.6522C89.3271 28.2272 89.1122 27.8589 88.8348 27.5472C88.5575 27.2355 88.2178 26.9876 87.8226 26.7964C87.4274 26.6051 86.9837 26.513 86.5053 26.513C86.0269 26.513 85.5901 26.6051 85.2018 26.7964C84.8136 26.9876 84.4808 27.2355 84.2034 27.5472C83.9261 27.8589 83.7112 28.2272 83.5656 28.6522C83.42 29.0772 83.3437 29.5234 83.3437 29.998C83.3437 30.4726 83.42 30.9401 83.5656 31.358C83.7112 31.7759 83.9261 32.1443 84.2034 32.463C84.4808 32.7818 84.8136 33.0368 85.2018 33.2139C85.5901 33.3909 86.0269 33.483 86.5053 33.483Z" fill="#000000"/><path d="M104.275 29.998L109.461 36.8264H104.414L100.31 31.103V36.8264H96.0664V16.993H100.31V28.9497L104.442 23.1697H109.489L104.275 29.998Z" fill="#000000"/><path d="M113.691 31.0464C113.712 31.4643 113.767 31.8539 113.871 32.2222C113.975 32.5905 114.142 32.9093 114.37 33.1855C114.599 33.4618 114.904 33.6743 115.272 33.8372C115.639 34.0001 116.104 34.078 116.658 34.078C117.4 34.078 117.955 33.9293 118.336 33.6247C118.718 33.3201 118.981 32.9518 119.127 32.5197H123.287C123.196 33.1643 122.975 33.7664 122.635 34.333C122.295 34.8997 121.838 35.3955 121.276 35.8205C120.714 36.2455 120.049 36.5784 119.279 36.8264C118.51 37.0743 117.65 37.1947 116.686 37.1947C115.521 37.1947 114.488 37.0176 113.594 36.6705C112.7 36.3234 111.944 35.8276 111.334 35.183C110.724 34.5385 110.259 33.7805 109.947 32.9022C109.635 32.0239 109.476 31.0534 109.476 29.998C109.476 28.9993 109.628 28.0643 109.933 27.193C110.238 26.3218 110.689 25.5639 111.292 24.9122C111.895 24.2605 112.63 23.7434 113.511 23.368C114.391 22.9926 115.41 22.8014 116.575 22.8014C117.629 22.8014 118.579 22.9714 119.418 23.3114C120.257 23.6514 120.978 24.1047 121.581 24.6714C122.184 25.238 122.642 25.8968 122.968 26.6547C123.293 27.4126 123.453 28.2059 123.453 29.0347C123.453 29.318 123.453 29.6226 123.439 29.9414C123.432 30.2601 123.391 30.6284 123.314 31.0464H113.691ZM116.547 25.6914C115.715 25.6914 115.029 25.9393 114.495 26.428C113.961 26.9168 113.691 27.6251 113.691 28.553H119.293C119.293 27.6676 119.036 26.9664 118.53 26.4564C118.024 25.9464 117.359 25.6914 116.547 25.6914Z" fill="#000000"/><path d="M125.769 23.1697H130.012V25.153C130.379 24.4164 130.941 23.8426 131.69 23.4389C132.438 23.0351 133.34 22.8297 134.393 22.8297C135.26 22.8297 136.009 22.9643 136.64 23.2405C137.271 23.5168 137.77 23.8993 138.137 24.388C138.56 24.9193 138.845 25.5285 138.983 26.2155C139.122 26.9026 139.191 27.7385 139.191 28.723V36.8264H134.948V29.828C134.948 28.8435 134.775 28.0501 134.435 27.4339C134.095 26.8176 133.478 26.513 132.591 26.513C131.703 26.513 131.072 26.8247 130.65 27.448C130.227 28.0714 130.012 28.9143 130.012 29.9697V36.8264H125.769V23.1697Z" fill="#000000"/><path d="M141.402 18.6364C141.402 17.8643 141.659 17.2126 142.179 16.6814C142.699 16.1501 143.344 15.888 144.12 15.888C144.508 15.888 144.869 15.9589 145.202 16.1005C145.535 16.2422 145.826 16.4334 146.075 16.6814C146.325 16.9293 146.519 17.2197 146.658 17.5597C146.796 17.8997 146.866 18.261 146.866 18.6364C146.866 19.0118 146.796 19.366 146.658 19.6989C146.519 20.0318 146.325 20.3222 146.075 20.5772C145.826 20.8322 145.535 21.0305 145.202 21.1722C144.869 21.3139 144.508 21.3847 144.12 21.3847C143.732 21.3847 143.378 21.3139 143.052 21.1722C142.727 21.0305 142.442 20.8322 142.193 20.5772C141.943 20.3222 141.749 20.0318 141.61 19.6989C141.472 19.366 141.402 19.0118 141.402 18.6364ZM142.012 23.1697H146.256V36.8264H142.012V23.1697Z" fill="#000000"/><path d="M160.414 23.1697L154.535 33.143H160.22V36.8264H147.962L153.869 26.853H148.322V23.1697H160.414Z" fill="#000000"/><path d="M175.999 23.1697V36.8264H171.756V34.8997C171.59 35.2185 171.368 35.516 171.09 35.7922C170.813 36.0685 170.494 36.3022 170.134 36.5005C169.773 36.6989 169.378 36.8618 168.955 36.9822C168.532 37.1026 168.102 37.1664 167.679 37.1664C166.716 37.1664 165.835 36.9822 165.031 36.6139C164.227 36.2455 163.54 35.7426 162.965 35.1122C162.389 34.4818 161.946 33.7239 161.634 32.8455C161.322 31.9672 161.162 31.018 161.162 29.998C161.162 28.978 161.322 28.0289 161.634 27.1505C161.946 26.2722 162.389 25.5143 162.965 24.8839C163.54 24.2535 164.227 23.7505 165.031 23.3822C165.835 23.0139 166.716 22.8297 167.679 22.8297C168.102 22.8297 168.532 22.8935 168.955 23.0139C169.378 23.1343 169.773 23.3043 170.134 23.5097C170.494 23.7151 170.813 23.963 171.09 24.2464C171.368 24.5297 171.59 24.8201 171.756 25.1247V23.1697H175.999ZM168.567 33.483C169.045 33.483 169.482 33.391 169.87 33.1997C170.259 33.0085 170.591 32.7605 170.869 32.4489C171.146 32.1372 171.361 31.7689 171.52 31.3439C171.68 30.9189 171.756 30.4726 171.756 29.998C171.756 29.5235 171.68 29.0843 171.52 28.6664C171.361 28.2485 171.146 27.8801 170.869 27.5614C170.591 27.2426 170.259 26.9876 169.87 26.7964C169.482 26.6051 169.045 26.513 168.567 26.513C168.088 26.513 167.652 26.6051 167.263 26.7964C166.875 26.9876 166.542 27.2426 166.265 27.5614C165.988 27.8801 165.773 28.2485 165.613 28.6664C165.454 29.0843 165.378 29.5235 165.378 29.998C165.378 30.4726 165.454 30.9189 165.613 31.3439C165.773 31.7689 165.988 32.1372 166.265 32.4489C166.542 32.7605 166.875 33.0085 167.263 33.1997C167.652 33.391 168.088 33.483 168.567 33.483Z" fill="#000000"/><path d="M49.919 0H33.2793V17H49.919V0Z" fill="#8EE718"/><path d="M0 17V34H16.6397V51H33.2795V34V17H0Z" fill="#8EE718"/><path d="M16.6397 51H0V68H16.6397V51Z" fill="#8EE718"/></g><defs fill="#000000"><clipPath id="clip0_308_17868" fill="#000000"><rect width="176" height="68" fill="white"/></clipPath></defs></svg>