<svg xmlns="http://www.w3.org/2000/svg" width="1369" height="284" viewBox="0 0 1369 284" fill="none">
<path d="M567.562 89.3342H492.807V242H458.886V89.3342H384V55.5241H567.562V89.3342Z" fill="#000000"/>
<path d="M735.991 224.965C735.991 227.392 735.556 229.646 734.686 231.727C733.816 233.808 732.599 235.628 731.033 237.189C729.555 238.662 727.772 239.833 725.684 240.7C723.684 241.567 721.509 242 719.161 242H642.448C638.274 242 633.794 241.523 629.011 240.57C624.314 239.616 619.661 238.099 615.051 236.018C610.441 233.851 605.962 231.163 601.613 227.956C597.351 224.661 593.611 220.717 590.393 216.122C587.175 211.441 584.566 206.066 582.566 199.997C580.652 193.929 579.695 187.08 579.695 179.451V101.428H613.616V179.451C613.616 183.873 614.355 187.86 615.834 191.415C617.399 194.883 619.487 197.873 622.096 200.388C624.705 202.902 627.749 204.852 631.228 206.239C634.794 207.54 638.621 208.19 642.709 208.19H702.07V101.428H735.991V224.965Z" fill="#000000"/>
<path d="M829.794 242H814.66C809.79 242 804.571 241.176 799.005 239.529C793.525 237.882 788.394 235.195 783.61 231.467C778.826 227.652 774.869 222.754 771.738 216.772C768.607 210.704 767.041 203.292 767.041 194.536V42H800.962V194.536C800.962 198.697 802.266 202.035 804.876 204.549C807.485 206.976 810.746 208.19 814.66 208.19H829.794V242Z" fill="#000000"/>
<path d="M1003.7 224.965C1003.7 227.392 1003.27 229.646 1002.4 231.727C1001.53 233.808 1000.31 235.628 998.744 237.189C997.266 238.662 995.483 239.833 993.395 240.7C991.395 241.567 989.221 242 986.872 242H910.16C905.985 242 901.506 241.523 896.722 240.57C892.025 239.616 887.372 238.099 882.762 236.018C878.153 233.851 873.673 231.163 869.325 227.956C865.063 224.661 861.323 220.717 858.105 216.122C854.887 211.441 852.277 206.066 850.277 199.997C848.363 193.929 847.407 187.08 847.407 179.451V101.428H881.327V179.451C881.327 183.873 882.066 187.86 883.545 191.415C885.111 194.883 887.198 197.873 889.807 200.388C892.417 202.902 895.461 204.852 898.94 206.239C902.506 207.54 906.333 208.19 910.421 208.19H969.781V101.428H1003.7V224.965Z" fill="#000000"/>
<path d="M1201.22 242H1152.3L1083.94 176.2C1080.11 172.733 1078.33 168.398 1078.59 163.196C1078.76 160.769 1079.37 158.515 1080.41 156.434C1081.55 154.267 1083.07 152.446 1084.98 150.973L1146.95 101.168H1201.22L1121.38 165.277L1201.22 242ZM1069.98 242H1036.06V42H1069.98V242Z" fill="#000000"/>
<path d="M1369 194.536C1369 200.344 1368.26 205.589 1366.78 210.27C1365.3 214.865 1363.35 218.94 1360.91 222.494C1358.48 225.962 1355.65 228.953 1352.43 231.467C1349.21 233.894 1345.82 235.888 1342.26 237.449C1338.78 239.009 1335.21 240.179 1331.56 240.96C1327.99 241.653 1324.6 242 1321.38 242H1260.19C1255.5 242 1250.37 241.176 1244.8 239.529C1239.23 237.882 1234.06 235.195 1229.27 231.467C1224.58 227.652 1220.62 222.754 1217.4 216.772C1214.27 210.704 1212.7 203.292 1212.7 194.536V148.762C1212.7 140.093 1214.27 132.767 1217.4 126.785C1220.62 120.717 1224.58 115.819 1229.27 112.091C1234.06 108.277 1239.23 105.546 1244.8 103.899C1250.37 102.251 1255.5 101.428 1260.19 101.428H1321.38C1330.08 101.428 1337.47 102.988 1343.56 106.109C1349.65 109.23 1354.56 113.175 1358.3 117.943C1362.04 122.624 1364.74 127.739 1366.39 133.287C1368.13 138.836 1369 143.994 1369 148.762V194.536ZM1335.08 149.022C1335.08 144.341 1333.91 140.873 1331.56 138.619C1329.21 136.365 1325.82 135.238 1321.38 135.238H1260.45C1255.93 135.238 1252.5 136.408 1250.15 138.749C1247.8 141.003 1246.63 144.341 1246.63 148.762V194.536C1246.63 198.957 1247.8 202.338 1250.15 204.679C1252.5 207.02 1255.93 208.19 1260.45 208.19H1321.38C1325.99 208.19 1329.43 207.02 1331.69 204.679C1333.95 202.338 1335.08 198.957 1335.08 194.536V149.022Z" fill="#000000"/>
<path fill-rule="evenodd" clip-rule="evenodd" d="M144.093 156.375L233.146 138.646C246.981 135.879 256.819 133.216 265.12 127.063C289.405 103.084 263.688 79.6196 237.86 66.6047C186.725 82.1785 131.084 97.3483 80.2547 112.818C62.0118 118.352 53.8147 132.598 61.8098 150.43C64.987 157.703 71.3414 168.361 76.2572 175.536C81.4852 183.427 85.6847 187.32 92.6513 191.012C82.1953 184.657 84.142 168.367 98.6935 165.496L144.086 156.381L144.093 156.375Z" fill="url(#paint0_linear_604_2)"/>
<path fill-rule="evenodd" clip-rule="evenodd" d="M62.1169 71.5269C107.822 52.5133 227.203 9.94177 286.535 2.87112C295.142 1.84878 305.084 2.05081 311.843 8.30115C306.621 3.07315 298.418 -5.86828e-07 287.662 -1.05699e-06L30.755 -1.22867e-05C4.21707 -1.34467e-05 -6.64909 18.549 4.113 42.73C10.8714 57.9977 33.712 101.16 37.6175 107.798C46.2851 122.532 37.6175 82.2969 62.1107 71.5208C62.1107 71.5208 16.4121 90.5405 62.1169 71.5269Z" fill="url(#paint1_linear_604_2)"/>
<path fill-rule="evenodd" clip-rule="evenodd" d="M265.121 127.071C270.863 122.872 275.883 116.823 280.799 107.91C295.246 81.5742 307.545 58.0054 314.309 42.7377C320.762 28.2903 319.433 15.9916 311.848 8.30875C305.188 1.75233 295.148 1.44624 286.541 2.36451C257.744 5.74373 214.194 15.9916 172.792 31.8776C193.08 41.9173 239.501 63.9496 260.205 83.0129C273.318 95.1034 279.568 112.832 265.121 127.077L265.121 127.071Z" fill="url(#paint2_linear_604_2)"/>
<path fill-rule="evenodd" clip-rule="evenodd" d="M219.925 203.301C176.36 239.105 104.744 210.714 104.744 222.977C104.744 228.132 129.751 262.536 136.51 271.345C151.165 287.739 167.253 287.739 181.903 271.345C190.204 260.485 205.778 236.194 223.611 206.785C227.094 201.048 228.324 195.716 227.094 191.107C227.914 197.051 224.125 200.43 219.919 203.301L219.925 203.301Z" fill="url(#paint3_linear_604_2)"/>
<path fill-rule="evenodd" clip-rule="evenodd" d="M160.799 162.113L144.092 156.377L96.7525 163.858C82.201 166.827 80.1502 183.943 92.6509 191.014C94.5976 192.14 96.7525 193.169 99.3114 194.295L163.035 222.645L174.791 221.862C185.964 220.533 230.679 209.465 227.091 191.118C225.867 186.606 221.967 183.025 215.203 180.766L160.786 162.119L160.799 162.113Z" fill="url(#paint4_linear_604_2)"/>
<defs fill="#000000">
<linearGradient id="paint0_linear_604_2" x1="27.9563" y1="128.808" x2="287.446" y2="128.808" gradientUnits="userSpaceOnUse" fill="#000000">
<stop stop-color="#FF85FF" fill="#000000"/>
<stop offset="0.49" stop-color="#9400B7" fill="#000000"/>
<stop offset="1" stop-color="#5A00A1" fill="#000000"/>
</linearGradient>
<linearGradient id="paint1_linear_604_2" x1="314.836" y1="53.9023" x2="-76.768" y2="53.9023" gradientUnits="userSpaceOnUse" fill="#000000">
<stop stop-color="#753EBA" fill="#000000"/>
<stop offset="0.34" stop-color="#259ABA" fill="#000000"/>
<stop offset="0.69" stop-color="#5EE4C6" fill="#000000"/>
<stop offset="0.99" stop-color="#B4FFF3" fill="#000000"/>
</linearGradient>
<linearGradient id="paint2_linear_604_2" x1="313.746" y1="64.519" x2="148.311" y2="64.5189" gradientUnits="userSpaceOnUse" fill="#000000">
<stop stop-color="#FF85FF" fill="#000000"/>
<stop offset="0.49" stop-color="#9400B7" fill="#000000"/>
<stop offset="1" stop-color="#5A00A1" fill="#000000"/>
</linearGradient>
<linearGradient id="paint3_linear_604_2" x1="73.9637" y1="237.381" x2="251.189" y2="237.381" gradientUnits="userSpaceOnUse" fill="#000000">
<stop stop-color="#FFCE86" fill="#000000"/>
<stop offset="0.52" stop-color="#FF4F9D" fill="#000000"/>
<stop offset="1" stop-color="#8B00B7" fill="#000000"/>
</linearGradient>
<linearGradient id="paint4_linear_604_2" x1="155.852" y1="227.041" x2="155.852" y2="142.756" gradientUnits="userSpaceOnUse" fill="#000000">
<stop stop-color="#662D80" fill="#000000"/>
<stop offset="0.49" stop-color="#C10080" fill="#000000"/>
<stop offset="1" stop-color="#FF5781" fill="#000000"/>
</linearGradient>
</defs>
</svg>