<svg xmlns="http://www.w3.org/2000/svg" width="100%" viewBox="0 0 1675 300" fill="none" class="nav-logo__inner"><path d="M231.294 233.72C221.066 233.72 214.251 240.534 214.251 250.76V292.628C214.314 293.606 214.168 294.587 213.822 295.504C213.476 296.422 212.938 297.255 212.245 297.948C211.551 298.642 210.718 299.179 209.8 299.525C208.883 299.871 207.902 300.017 206.923 299.954H82.2962C22.4063 299.954 0.0142707 274.645 0.0142707 214.764V78.4219C-0.048772 77.4434 0.097549 76.4627 0.443513 75.5452C0.789476 74.6277 1.3271 73.7945 2.02055 73.1012C2.71401 72.4078 3.54738 71.8702 4.46502 71.5243C5.38266 71.1784 6.36352 71.0321 7.34218 71.0951H60.9092C61.8878 71.0321 62.8687 71.1784 63.7863 71.5243C64.704 71.8702 65.5374 72.4078 66.2308 73.1012C66.9243 73.7945 67.4619 74.6277 67.8078 75.5452C68.1538 76.4627 68.3001 77.4434 68.2371 78.4219V216.68C68.2371 226.906 75.0625 233.72 85.2797 233.72H197.292C207.52 233.72 214.335 226.906 214.335 216.68V78.4219C214.272 77.4434 214.418 76.4627 214.764 75.5452C215.11 74.6277 215.648 73.7945 216.341 73.1012C217.034 72.4078 217.868 71.8702 218.785 71.5243C219.703 71.1784 220.684 71.0321 221.663 71.0951H275.219C276.197 71.0338 277.177 71.1813 278.094 71.5278C279.011 71.8743 279.844 72.4119 280.537 73.1049C281.23 73.7979 281.768 74.6304 282.114 75.5471C282.461 76.4639 282.608 77.4438 282.547 78.4219V216.68C282.547 226.906 289.362 233.72 299.579 233.72H411.591C421.819 233.72 428.634 226.906 428.634 216.68V78.4219C428.571 77.4434 428.717 76.4627 429.063 75.5452C429.409 74.6277 429.947 73.7945 430.64 73.1012C431.334 72.4078 432.167 71.8702 433.085 71.5243C434.003 71.1784 434.983 71.0321 435.962 71.0951H489.341C490.319 71.0321 491.3 71.1784 492.218 71.5243C493.135 71.8702 493.969 72.4078 494.662 73.1012C495.356 73.7945 495.893 74.6277 496.239 75.5452C496.585 76.4627 496.732 77.4434 496.669 78.4219V214.733C496.669 274.614 474.266 299.923 414.376 299.923H289.718C288.739 299.986 287.758 299.84 286.841 299.494C285.923 299.148 285.09 298.61 284.396 297.917C283.703 297.224 283.165 296.39 282.819 295.473C282.473 294.555 282.327 293.575 282.39 292.596V250.728C282.39 240.502 275.565 233.688 265.347 233.688L231.294 233.72ZM1239.18 234.201C1228.96 234.201 1222.14 227.387 1222.14 217.171V7.34111C1222.2 6.36259 1222.06 5.38182 1221.71 4.46431C1221.37 3.5468 1220.83 2.71361 1220.14 2.02026C1219.44 1.3269 1218.61 0.789362 1217.69 0.443448C1216.77 0.0975348 1215.79 -0.0487649 1214.81 0.0142686H1161.28C1160.3 -0.0487649 1159.32 0.0975348 1158.4 0.443448C1157.48 0.789362 1156.65 1.3269 1155.96 2.02026C1155.26 2.71361 1154.73 3.5468 1154.38 4.46431C1154.03 5.38182 1153.89 6.36259 1153.95 7.34111V226.906C1153.89 227.884 1154.03 228.865 1154.38 229.782C1154.73 230.7 1155.26 231.533 1155.96 232.227C1156.65 232.92 1157.48 233.457 1158.4 233.803C1159.32 234.149 1160.3 234.296 1161.28 234.233H1205.1C1215.33 234.233 1222.14 241.057 1222.14 251.273V292.659C1222.08 293.637 1222.23 294.618 1222.57 295.536C1222.92 296.453 1223.45 297.286 1224.15 297.98C1224.84 298.673 1225.68 299.211 1226.59 299.557C1227.51 299.902 1228.49 300.049 1229.47 299.986H1456.34C1516.23 299.986 1538.63 274.677 1538.63 214.795V156.317C1538.63 96.4355 1516.23 71.1161 1456.34 71.1161H1297.61C1296.63 71.053 1295.65 71.1993 1294.73 71.5452C1293.81 71.8912 1292.98 72.4287 1292.29 73.122C1291.59 73.8154 1291.06 74.6487 1290.71 75.5662C1290.36 76.4837 1290.22 77.4644 1290.28 78.4429V129.553C1290.22 130.531 1290.36 131.512 1290.71 132.43C1291.06 133.347 1291.59 134.18 1292.29 134.874C1292.98 135.567 1293.81 136.105 1294.73 136.45C1295.65 136.796 1296.63 136.943 1297.61 136.88H1453.42C1463.65 136.88 1470.46 143.694 1470.46 153.92V217.213C1470.46 227.429 1463.65 234.243 1453.42 234.243L1239.18 234.201ZM864.268 136.859C874.496 136.859 881.31 143.673 881.31 153.899V292.628C881.247 293.606 881.394 294.587 881.74 295.504C882.086 296.422 882.623 297.255 883.317 297.948C884.01 298.642 884.844 299.179 885.761 299.525C886.679 299.871 887.66 300.017 888.638 299.954H942.205C943.184 300.017 944.165 299.871 945.083 299.525C946 299.179 946.834 298.642 947.527 297.948C948.22 297.255 948.758 296.422 949.104 295.504C949.45 294.587 949.596 293.606 949.533 292.628V144.144C949.596 143.165 949.45 142.184 949.104 141.267C948.758 140.349 948.22 139.516 947.527 138.823C946.834 138.13 946 137.592 945.083 137.246C944.165 136.9 943.184 136.754 942.205 136.817H898.353C888.125 136.817 881.31 130.003 881.31 119.777V78.4219C881.373 77.4434 881.227 76.4627 880.881 75.5452C880.535 74.6277 879.998 73.7945 879.304 73.1012C878.611 72.4078 877.777 71.8702 876.86 71.5243C875.942 71.1784 874.961 71.0321 873.983 71.0951H647.11C587.221 71.0951 564.818 96.4146 564.818 156.296V214.712C564.818 274.593 587.221 299.902 647.11 299.902H805.843C806.822 299.965 807.803 299.819 808.721 299.473C809.638 299.127 810.472 298.589 811.165 297.896C811.858 297.203 812.396 296.369 812.742 295.452C813.088 294.534 813.234 293.554 813.171 292.575V241.507C813.234 240.529 813.088 239.548 812.742 238.63C812.396 237.713 811.858 236.88 811.165 236.186C810.472 235.493 809.638 234.955 808.721 234.609C807.803 234.263 806.822 234.117 805.843 234.18H650.031C639.803 234.18 632.989 227.366 632.989 217.15V153.878C632.989 143.652 639.803 136.838 650.031 136.838L864.268 136.859ZM1614.1 71.1369C1613.12 71.0739 1612.14 71.2203 1611.22 71.5662C1610.31 71.9121 1609.47 72.4496 1608.78 73.143C1608.09 73.8364 1607.55 74.6695 1607.2 75.5871C1606.86 76.5046 1606.71 77.4853 1606.77 78.4638V292.628C1606.71 293.606 1606.86 294.587 1607.2 295.504C1607.55 296.422 1608.09 297.255 1608.78 297.948C1609.47 298.642 1610.31 299.179 1611.22 299.525C1612.14 299.871 1613.12 300.017 1614.1 299.954H1667.66C1668.64 300.017 1669.62 299.871 1670.54 299.525C1671.45 299.179 1672.29 298.642 1672.98 297.948C1673.67 297.255 1674.21 296.422 1674.56 295.504C1674.9 294.587 1675.05 293.606 1674.99 292.628V78.4219C1675.05 77.4434 1674.9 76.4627 1674.56 75.5452C1674.21 74.6277 1673.67 73.7945 1672.98 73.1012C1672.29 72.4078 1671.45 71.8702 1670.54 71.5243C1669.62 71.1784 1668.64 71.0321 1667.66 71.0951L1614.1 71.1369ZM1085.81 7.34111C1085.87 6.36259 1085.73 5.38182 1085.38 4.46431C1085.04 3.5468 1084.5 2.71361 1083.81 2.02026C1083.11 1.3269 1082.28 0.789362 1081.36 0.443448C1080.44 0.0975348 1079.46 -0.0487649 1078.48 0.0142686H1024.95C1023.97 -0.0487649 1022.99 0.0975348 1022.07 0.443448C1021.15 0.789362 1020.32 1.3269 1019.63 2.02026C1018.93 2.71361 1018.4 3.5468 1018.05 4.46431C1017.7 5.38182 1017.56 6.36259 1017.62 7.34111V292.628C1017.56 293.606 1017.7 294.587 1018.05 295.504C1018.4 296.422 1018.93 297.255 1019.63 297.948C1020.32 298.642 1021.15 299.179 1022.07 299.525C1022.99 299.871 1023.97 300.017 1024.95 299.954H1078.5C1079.48 300.017 1080.46 299.871 1081.38 299.525C1082.3 299.179 1083.13 298.642 1083.83 297.948C1084.52 297.255 1085.06 296.422 1085.4 295.504C1085.75 294.587 1085.9 293.606 1085.83 292.628L1085.81 7.34111Z" fill="#000000"/></svg>