<?xml version="1.0" encoding="UTF-8"?>
<svg width="445px" height="445px" viewBox="0 0 445 445" version="1.1" xmlns="http://www.w3.org/2000/svg" xmlns:xlink="http://www.w3.org/1999/xlink">
    <title>Group 36</title>
    <g id="Page-1" stroke="none" stroke-width="1" fill="none" fill-rule="evenodd">
        <g id="Group-36" transform="translate(0.6679, 0.6165)">
            <rect id="Rectangle" stroke="#DB000B" stroke-width="28" x="14" y="14" width="415.896967" height="415.896967" rx="134"></rect>
            <g id="Group-6" transform="translate(97.1333, 92.897)" fill="#DB000B">
                <path d="M105.683016,149.226853 C147.152709,136.38403 193.975116,105.487989 217.639328,64.9697131 C229.825909,44.104409 229.069519,30.2521873 222.912976,25.7823685 C220.938982,24.348653 218.089999,23.536917 214.539972,23.536917 C203.204659,23.536917 184.703404,31.8018651 164.491706,54.4777621 C141.357231,80.4295937 122.429024,116.030014 105.68038,149.229488 L105.683016,149.226853 Z M24.359195,241.638249 C31.0850073,245.952573 36.9200185,230.853757 49.3543377,221.463448 C49.7760187,221.025954 58.3203305,214.914214 58.744647,214.445094 C56.2857195,213.90218 41.3687533,214.445094 39.2050026,214.445094 C34.9143981,214.445094 32.4791902,218.709343 28.9818732,221.323766 C23.0888809,225.732968 19.8682921,228.661016 20.3005151,231.106766 C20.4718231,232.060819 21.5866423,236.235461 21.8212023,236.309255 L24.359195,241.638249 Z M25.1841085,250.092954 C23.0809744,250.092954 21.2334844,249.776693 19.6363675,249.29176 C13.6168709,247.465354 9.34998606,242.523779 8.2167183,236.074695 C8.0085133,234.901895 7.90572855,233.70801 7.90572855,232.503584 C7.90572855,224.091048 12.8288545,215.167223 21.1280642,208.955334 C27.6904751,204.04275 34.5638758,202.116195 41.6902851,202.116195 C47.1932225,202.116195 52.8490192,203.265276 58.6313202,205.078504 C64.6244618,195.677653 70.9048735,183.87322 77.6043308,170.698323 C74.1280979,171.01722 70.7388366,171.185892 67.4497247,171.185892 C66.8382872,171.185892 66.2294852,171.177986 65.6233187,171.164808 C35.7656667,170.656155 24.343382,154.692893 20.1950949,145.223519 C17.759887,139.657329 16.5791801,133.561403 16.5791801,127.320524 C16.5791801,114.282673 21.7315951,100.617573 31.3274739,89.840987 C32.8507966,88.1279079 44.1650256,98.6330364 42.8525434,100.103649 C35.8526384,107.957458 32.0206121,118.06199 32.0206121,127.383776 C32.0206121,131.505708 32.7717314,135.477416 34.3319512,139.030078 C39.0020686,149.688066 49.9130651,155.465096 65.8895049,155.741825 C66.2953728,155.749731 66.7012408,155.749731 67.1123798,155.749731 C73.0080076,155.749731 79.3674846,155.180462 85.9957832,154.031381 C104.618271,116.854928 125.718136,74.7685259 152.961365,44.2071937 C170.461128,24.572671 194.626086,7.90572855 214.640122,7.90572855 C220.941617,7.90572855 226.83461,9.56082657 231.979118,13.2953391 C239.619451,18.8509866 242.660826,27.028963 242.660826,36.1847122 C242.660826,47.9285287 237.663906,61.2773687 230.956542,72.754999 C202.37711,121.685811 144.693782,156.877728 96.408669,167.691211 C88.2623187,183.923295 80.6905088,198.716392 73.3005489,210.697404 C90.236313,217.995121 113.188938,229.891797 135.798948,229.891797 C153.264449,229.891797 163.405877,221.634756 178.346563,202.187354 C180.942537,198.803364 193.192371,208.209486 190.596397,211.596112 C173.942632,233.275787 159.805775,245.314781 135.777864,245.314781 C108.416036,245.314781 82.4773821,231.238541 64.4373408,223.708899 C62.5345052,226.181004 60.6369406,228.42382 58.7314695,230.418898 C43.9410076,245.881414 32.8534321,250.090318 25.1735665,250.090318 L25.1841085,250.092954 Z" id="Fill-1"></path>
                <g id="Group-5">
                    <path d="M170.393395,59.7390236 C151.849972,80.5410756 135.852448,108.205986 121.929068,134.845685 C159.477128,118.882423 193.153629,91.222783 210.811521,60.9829826 C221.485322,42.7083812 219.719533,33.2337357 218.267369,32.1795331 C218.161949,32.1031035 217.176269,31.4415914 214.540763,31.4415914 C205.390285,31.4415914 188.989528,38.8737194 170.393395,59.7390236 Z M90.7721114,161.227104 L87.3433176,161.822728 C87.1298416,161.85699 86.9163656,161.896523 86.7028896,161.930784 L90.5955325,161.577626 L90.7721114,161.227104 Z M25.1822637,258.000264 C22.4676921,258.000264 19.8269146,257.612844 17.3310901,256.851183 C10.8609219,254.890366 5.75594598,250.533874 2.80681432,244.677779 L1.71571467,242.181954 C1.1517163,240.67708 0.719493247,239.093141 0.429587543,237.440678 C0.144952852,235.83829 0,234.17265 0,232.501739 C0,221.47478 6.12755238,210.305504 16.3875788,202.625639 C23.8486974,197.041001 32.3587476,194.210467 41.6884402,194.210467 C45.8525404,194.210467 50.2512005,194.761287 55.0109251,195.884013 C58.1550842,190.613 61.3361405,184.822793 64.3880569,179.045763 C30.9382096,178.096981 17.8107523,159.485034 12.953514,148.397459 C10.1124381,141.908842 8.67345156,134.81933 8.67345156,127.318679 C8.67345156,112.114442 14.7772844,96.5385994 25.4194592,84.5813069 C28.3817684,81.2552978 51.3080386,102.50275 48.7568684,105.36491 C43.227576,111.563621 39.927922,119.794308 39.927922,127.381931 C39.927922,130.518183 40.4813783,133.369801 41.572478,135.857719 C44.9591037,143.585024 53.1845192,147.614713 66.0247063,147.836096 L67.1131705,147.841367 C71.4380365,147.841367 76.0106401,147.509293 80.7492806,146.850417 C99.1213957,110.195794 119.970887,69.3375379 147.061257,38.9448781 C163.844162,20.1168204 190.410066,0 214.638277,0 C222.924309,0 230.31954,2.31924563 236.623671,6.89712025 C245.747794,13.5306899 250.568136,23.658941 250.568136,36.1855029 C250.568136,48.2297671 246.027158,62.6328096 237.780658,76.7433109 C207.311569,128.91316 148.268319,163.082501 101.817519,174.541682 C96.0167692,186.058845 90.3108978,197.180682 84.6445591,207.069102 C99.7064781,213.792279 118.29734,221.983433 135.797103,221.983433 C149.269812,221.983433 157.408255,216.462047 172.077484,197.370439 C174.615477,194.062878 202.109079,209.575469 196.872328,216.406702 C179.412098,239.137944 163.100949,253.219455 135.778654,253.219455 C111.394949,253.219455 89.0484903,243.254605 71.0927851,235.247937 C69.6195371,234.591696 68.1805506,233.948632 66.7784612,233.331924 C66.0009868,234.217454 65.2287834,235.066087 64.451309,235.877823 C57.216844,243.441726 50.2037614,249.08171 43.456865,252.771419 C40.0715442,254.888924 37.3263109,256.248845 35.2211653,256.851183 C33.2652884,257.410811 29.9189879,257.793838 25.1822637,258.000264 Z" id="Fill-3"></path>
                </g>
            </g>
        </g>
    </g>
</svg>