<svg xmlns="http://www.w3.org/2000/svg" xmlns:xlink="http://www.w3.org/1999/xlink" width="743px" height="375px" viewBox="0 0 743 375" version="1.1">
    <title>Group 35 Copy</title>
    <g id="Page-1" stroke="none" stroke-width="1" fill="none" fill-rule="evenodd">
        <g id="Group-35-Copy" transform="translate(3, 3.065)" fill="#e2e8f0">
            <path d="M148.974324,215.321099 C212.162838,195.75387 283.503394,148.677144 319.555344,86.9453917 C338.126147,55.1530147 336.978219,34.0474448 327.596671,27.235625 C324.589914,25.0504818 320.248762,23.8093205 314.835434,23.8093205 C297.569889,23.8093205 269.378628,36.4073995 238.57685,70.9559704 C203.329033,110.498322 174.490969,164.73649 148.968497,215.326926 L148.974324,215.321099 Z M24.6950318,345.270109 C28.5408839,346.441346 40.8942269,343.218988 60.4556289,322.766047 C61.0966043,322.095937 61.7317526,321.402518 62.384382,320.679964 C58.6317627,319.852523 55.1355336,319.415494 51.8374241,319.415494 C45.2994756,319.415494 39.5656598,321.163609 34.2397374,325.14931 C25.2602556,331.86207 22.9702255,339.845127 23.628682,343.580265 C23.8850721,345.0312 24.3395819,345.165222 24.7008589,345.275936 L24.6950318,345.270109 Z M99.6367035,308.97925 C110.900388,290.723107 122.432118,268.184083 134.843731,243.454089 C208.410219,226.981023 296.30542,173.354695 339.850954,98.8034356 C350.06577,81.3164628 357.681722,60.9800633 357.681722,43.0851971 C357.681722,29.1352429 353.049219,16.671186 341.400949,8.21031144 C333.569395,2.51145793 324.595741,0 314.986938,0 C284.493992,0 247.672872,25.3884506 221.008298,55.304518 C179.502231,101.87429 147.354404,165.995133 118.982505,222.639872 C108.878403,224.393813 99.1880208,225.256217 90.2027119,225.256217 C89.5850447,225.256217 88.9615505,225.256217 88.3497104,225.244563 C63.9984745,224.830842 47.3739049,216.020345 40.2590786,199.786187 C37.8874698,194.367032 36.7395412,188.318556 36.7395412,182.036997 C36.7395412,167.842307 42.5782439,152.441418 53.2475698,140.47266 C55.2462475,138.235073 38.0098378,122.222344 35.6906725,124.838689 C21.0647806,141.253484 13.2099191,162.079356 13.2099191,181.937938 C13.2099191,191.453508 15.0104771,200.741823 18.7223071,209.220179 C25.0388277,223.653778 42.4500488,247.975879 87.93599,248.745049 C88.8683178,248.768358 89.7948185,248.774185 90.7213192,248.774185 C95.732581,248.774185 100.895346,248.517794 106.192133,248.034149 C95.9831441,268.108332 86.4151303,286.096431 77.2841452,300.419316 C68.4794748,297.663122 59.8554429,295.909181 51.4761471,295.909181 C40.6145285,295.909181 30.1433223,298.840186 20.149934,306.322116 C7.49941151,315.79107 0,329.385575 0,342.205081 C0,344.046429 0.157330311,345.858641 0.471990934,347.647545 C2.20262436,357.477776 8.69978352,365.000495 17.871558,367.785825 C20.3072643,368.52586 23.1217287,369 26.3091243,369 C38.0098378,369 54.9024516,362.58227 77.4414755,339.023513 C80.3433457,335.993448 83.2335618,332.57297 86.135432,328.808697 C113.62162,340.276328 153.140663,361.725694 194.827369,361.725694 C201.578187,361.725694 218.702988,361.336176 226.605444,360.254364 C230.27157,359.752488 231.939841,355.741315 232.155442,353.940757 C232.406005,351.866328 231.118227,349.850169 229.416729,348.64397 C227.709404,347.437771 225.646629,346.884201 223.624643,346.35394 C213.642909,343.720114 207.738077,338.225207 197.412547,338.225207 C162.963036,338.225207 125.444702,320.097259 99.6367035,308.97925 Z" id="Fill-1" stroke="#e2e8f0" stroke-width="5" fill="#ffffff"/>
            <path d="M359.752144,292.648947 C365.351937,295.941229 367.216593,303.155115 363.918483,308.749082 C339.310857,350.56981 316.276534,359.689141 300.875645,359.689141 C297.123026,359.689141 293.824916,359.147225 291.068722,358.40719 C280.521764,355.569417 271.938522,347.836924 268.477255,338.874923 C254.265083,352.638412 238.957427,360.254364 225.776643,360.254364 C221.00429,360.254364 216.52329,359.257939 212.473491,357.200991 C205.54513,353.693108 190.435593,341.835064 199.718082,307.752657 C204.16412,291.413613 212.170485,277.131517 224.279091,255.52482 L230.440378,244.902111 C233.592812,239.226566 253.921288,250.641754 250.768854,256.323126 L244.790302,267.021587 C233.532445,287.107424 226.097131,300.38144 222.414436,313.923501 C218.562757,328.071575 220.724592,335.017417 223.113682,336.229443 C227.775321,338.618533 243.578276,333.986029 260.820513,312.356025 C272.305626,297.963215 294.681492,260.932321 300.724142,246.318084 C303.212291,240.322051 324.935528,249.313187 322.459033,255.315047 C322.301703,255.682151 322.138545,256.072563 321.969561,256.462975 C321.759787,257.441919 321.421818,258.403382 320.949827,259.33571 C306.562844,287.655166 290.765716,322.891329 290.351995,330.437357 C290.515153,331.130776 292.822664,334.959147 298.212684,335.943918 C302.955901,336.78884 320.291371,336.573239 343.66949,296.838595 C346.967599,291.238801 354.187312,289.374146 359.757971,292.666428 L359.752144,292.648947 Z" id="Fill-4" stroke="#e2e8f0" stroke-width="5" fill="#ffffff"/>
            <path d="M396.780124,363.535575 C365.675339,363.535575 343.462629,343.443912 342.757557,314.675773 C342.279739,295.399896 351.643806,273.029857 366.596012,257.704719 C377.603307,246.423553 390.486911,240.211919 402.881044,240.211919 C420.886624,240.211919 433.461395,253.264508 433.461395,271.946026 C433.461395,277.271948 432.435834,282.924185 430.408021,288.751234 C428.269494,294.881289 406.068439,287.166277 408.201139,281.030395 C409.360722,277.691496 409.949254,274.632295 409.949254,271.946026 C409.949254,264.57481 405.911109,263.718233 402.881044,263.718233 C396.966589,263.718233 389.875071,267.511642 383.430356,274.113688 C372.848435,284.96948 365.94921,301.028825 366.269697,314.093068 C366.66011,329.837754 378.640522,340.01178 396.785951,340.01178 C420.700158,340.01178 443.076025,321.540036 460.108488,293.535241 C463.476522,287.987891 470.713716,286.216468 476.266893,289.601983 C481.814244,292.975844 483.579839,300.207212 480.200151,305.760389 C458.62259,341.247115 429.464039,363.535575 396.791778,363.535575 L396.780124,363.535575 Z" id="Fill-6" stroke="#e2e8f0" stroke-width="5" fill="#ffffff"/>
            <path d="M492.532517,360.469382 C480.656992,360.469382 469.777892,356.192329 462.680547,348.745361 C458.106314,343.938046 452.792045,335.372284 453.450502,321.888494 C454.948053,291.576187 481.437816,248.939673 482.562437,247.144942 C486.012049,241.638381 505.940556,254.114092 502.49677,259.614826 C495.725739,270.453136 477.929933,302.979721 476.939335,323.053904 C476.735388,327.26686 477.632754,330.36685 479.707183,332.540339 C482.346836,335.308187 487.130843,336.963069 492.520863,336.963069 C503.842818,336.963069 523.468318,325.827579 541.520514,294.448922 C544.76618,288.819993 551.962585,286.89124 557.57986,290.125252 C563.202962,293.365091 565.143369,300.555669 561.90353,306.178771 C542.330474,340.173772 516.394281,360.481037 492.515036,360.481037 L492.532517,360.469382 Z" id="Fill-8" stroke="#e2e8f0" stroke-width="5" fill="#ffffff"/>
            <path d="M515.91083,217.716835 C504.914967,217.716835 496.618778,209.921148 496.618778,199.56987 C496.618778,193.730688 499.394286,188.210006 504.240049,184.44108 C508.206143,181.362238 513.158073,179.731817 518.55742,179.731817 C529.181699,179.731817 537.508221,187.701922 537.508221,197.863615 C537.508221,208.995979 528.021446,217.709252 515.918413,217.709252 L515.91083,217.716835 Z" id="Path" fill="#ffffff"/>
            <path d="M736.756359,128.179336 L636.682627,305.047741 C631.059525,315.752029 629.293929,324.556699 631.572305,330.511943 C633.139781,334.58505 636.402929,336.560419 637.3877,337.084854 C647.829771,339.258343 667.070685,326.724361 687.372123,293.317892 C690.745984,287.776369 710.837647,299.978209 707.463786,305.531386 C685.723068,341.29781 661.604914,360.853385 639.870023,360.853385 C636.670973,360.853385 633.536021,360.433837 630.459339,359.577261 C630.144678,359.489856 629.835845,359.396623 629.532838,359.285909 C628.08773,358.74982 615.274051,353.639499 609.62764,338.926201 C609.41204,338.343496 609.202266,337.760791 609.004146,337.17226 C594.104383,352.112812 577.747858,360.381394 563.599784,360.381394 C558.530252,360.381394 553.752072,359.326698 549.416748,357.129901 C542.418462,353.575401 527.139941,341.71153 536.247618,308.240963 C541.911509,287.444227 556.129508,271.379054 566.338497,261.105968 C586.115499,241.194943 611.107711,233.707185 628.524759,242.430277 C631.158585,243.753017 635.161767,246.29361 638.663824,250.71634 L715.930488,117.236138 C718.954726,111.502323 739.77477,122.439693 736.756359,128.179336 Z M612.506202,262.341302 C604.767882,262.341302 593.352694,267.288466 583.021337,277.689748 C573.989411,286.779944 563.092831,299.174076 558.938145,314.440943 C555.459397,327.219661 557.073489,334.660802 560.051111,336.175834 C565.178914,338.75139 588.820532,325.432627 606.610512,303.126685 C609.71607,299.236243 622.26236,285.786502 624.946944,275.97184 C626.866326,268.954704 620.091277,264.515865 617.977801,263.454268 C616.503558,262.72006 614.644729,262.341302 612.506202,262.341302 Z" id="Combined-Shape" stroke="#e2e8f0" stroke-width="5" fill="#ffffff"/>
        </g>
    </g>
</svg>