<?xml version="1.0" encoding="UTF-8"?>
<svg width="444px" height="445px" viewBox="0 0 444 445" version="1.1" xmlns="http://www.w3.org/2000/svg" xmlns:xlink="http://www.w3.org/1999/xlink">
    <title>Group 37</title>
    <g id="Page-1" stroke="none" stroke-width="1" fill="none" fill-rule="evenodd">
        <g id="Group-37" transform="translate(0.0067, 0.5134)">
            <rect id="Rectangle" stroke="#DB000B" stroke-width="28" x="14" y="14" width="416" height="416" rx="208"></rect>
            <g id="Group-6-Copy" transform="translate(114.6831, 111.5515)" fill="#DB000B">
                <path d="M90.5268321,127.825972 C126.049285,116.824961 166.156809,90.3597738 186.427296,55.6522943 C196.866179,37.7793195 196.218264,25.9136689 190.944641,22.0848745 C189.253741,20.8567706 186.813336,20.1614471 183.772424,20.1614471 C174.062728,20.1614471 158.21477,27.2411047 140.901666,46.6650122 C121.084946,68.8950467 104.871266,99.3899493 90.5245745,127.82823 L90.5268321,127.825972 Z M20.8658008,206.98449 C26.6270527,210.68009 31.6252549,197.746621 42.2763469,189.702992 C42.6375539,189.32824 49.9565111,184.092995 50.3199757,183.691153 C48.2136873,183.226099 35.4359889,183.691153 33.5825454,183.691153 C29.907264,183.691153 27.8212934,187.343859 24.8255327,189.583342 C19.7776646,193.360213 17.018946,195.868344 17.3891832,197.963345 C17.5359235,198.780576 18.4908646,202.356525 18.691786,202.419737 L20.8658008,206.98449 Z M21.572412,214.226691 C19.770892,214.226691 18.1883537,213.955786 16.8202821,213.540398 C11.6640519,211.97592 8.0090884,207.743025 7.03834454,202.218815 C6.85999857,201.214208 6.77195436,200.191541 6.77195436,199.159843 C6.77195436,191.953763 10.9890463,184.30972 18.098052,178.988689 C23.7193362,174.780627 29.6070106,173.130362 35.7114093,173.130362 C40.4251609,173.130362 45.26985,174.114652 50.2229013,175.667842 C55.3565561,167.615183 60.7362831,157.503644 66.4749597,146.218182 C63.4972593,146.491345 60.5940579,146.635828 57.7766431,146.635828 C57.2528929,146.635828 56.7314003,146.629055 56.2121652,146.617767 C30.6364507,146.182061 20.8522555,132.508118 17.2988814,124.396763 C15.2129109,119.62883 14.2015312,114.407131 14.2015312,109.061267 C14.2015312,97.8931977 18.6150295,86.1878328 26.8347468,76.9567359 C28.1396071,75.4893323 37.831243,84.4879022 36.7069861,85.7476117 C30.7109496,92.4750924 27.4284808,101.130516 27.4284808,109.115448 C27.4284808,112.646247 28.0718808,116.048366 29.4083468,119.091535 C33.4087145,128.221042 42.7549462,133.169578 56.4401771,133.40662 C56.7878389,133.413393 57.1355006,133.413393 57.4876775,133.413393 C62.5378031,133.413393 67.9852565,132.925764 73.6629793,131.941474 C89.6147844,100.096561 107.688681,64.0458424 131.024912,37.8673637 C146.015003,21.0486618 166.714423,6.77195436 183.858211,6.77195436 C189.255998,6.77195436 194.303866,8.18969191 198.710592,11.3886316 C205.255212,16.1475341 207.860417,23.1526927 207.860417,30.9954001 C207.860417,41.0550156 203.580114,52.4894754 197.834665,62.3210789 C173.353859,104.234638 123.942997,134.379622 82.5825352,143.642324 C75.6044671,157.546537 69.1185435,170.218131 62.7883905,180.480925 C77.2953674,186.732064 96.956317,196.922617 116.323786,196.922617 C131.284529,196.922617 139.971558,189.849732 152.769574,173.191316 C154.993255,170.29263 165.486319,178.349804 163.262638,181.250748 C148.997218,199.821304 136.887753,210.133764 116.305726,210.133764 C92.8679051,210.133764 70.6491583,198.076222 55.1962705,191.626419 C53.5663238,193.743996 51.9408922,195.665165 50.308688,197.374126 C37.6393517,210.619136 28.1418647,214.224434 21.5633818,214.224434 L21.572412,214.226691 Z" id="Fill-1"></path>
                <g id="Group-5">
                    <path d="M145.956984,51.171747 C130.072905,68.9905408 116.369614,92.6879788 104.44301,115.507232 C136.606237,101.833289 165.453133,78.1403661 180.578677,52.2373077 C189.72173,36.5834985 188.209175,28.4676283 186.965269,27.5646107 C186.874967,27.4991419 186.030645,26.9324984 183.773102,26.9324984 C175.934909,26.9324984 161.886214,33.2987721 145.956984,51.171747 Z M77.7543261,138.105246 L74.8172615,138.615451 C74.6344005,138.644799 74.4515394,138.678663 74.2686784,138.708011 L77.6030707,138.4055 L77.7543261,138.105246 Z M21.5708317,221 C19.2455615,221 16.9835026,220.668141 14.8456085,220.015711 C9.3033383,218.336098 4.93047582,214.604378 2.40428423,209.588116 L1.46966106,207.450222 C0.986546673,206.161164 0.616309478,204.80438 0.367979651,203.3889 C0.124164913,202.016314 0,200.589546 0,199.158263 C0,189.712699 5.24878951,180.145229 14.0374078,173.566746 C20.4285145,168.78301 27.7181237,166.358408 35.709829,166.358408 C39.2767483,166.358408 43.044589,166.830235 47.1217133,167.791948 C49.8149631,163.276861 52.5398186,158.317037 55.1540544,153.368501 C26.5013075,152.555785 15.2564815,136.61301 11.0958281,127.115523 C8.66219584,121.55745 7.42957689,115.484657 7.42957689,109.059687 C7.42957689,96.0359164 12.6580485,82.6938321 21.7740107,72.4513555 C24.31149,69.6023352 43.9498641,87.8026539 41.7645617,90.2543465 C37.0282346,95.5640897 34.2017897,102.614399 34.2017897,109.113868 C34.2017897,111.800345 34.6758739,114.243008 35.6104971,116.374129 C38.5114409,122.993248 45.5572354,126.445032 56.5559891,126.634666 L57.4883548,126.639181 C61.1929842,126.639181 65.1098229,126.354731 69.1688868,125.790345 C84.9062251,94.3924245 102.765655,59.3937218 125.970948,33.3597258 C140.346988,17.2318324 163.10303,0 183.856631,0 C190.954349,0 197.289017,1.98663861 202.689062,5.90799232 C210.504679,11.5902302 214.633726,20.2659714 214.633726,30.9960774 C214.633726,41.3130529 210.743978,53.6505302 203.680123,65.7374201 C177.580659,110.425501 127.004903,139.694557 87.2156925,149.510358 C82.2468384,159.375825 77.3592559,168.90266 72.5055366,177.372965 C85.4073998,183.131959 101.332114,190.148405 116.322206,190.148405 C127.86277,190.148405 134.834065,185.418851 147.399555,169.065203 C149.573569,166.231986 173.124267,179.519889 168.638527,185.371443 C153.682299,204.842758 139.71036,216.904815 116.306403,216.904815 C95.4196069,216.904815 76.2778924,208.369042 60.897246,201.510624 C59.635279,200.948495 58.40266,200.397655 57.2016467,199.869389 C56.5356712,200.627924 55.8742109,201.354853 55.2082354,202.050177 C49.0112775,208.529328 43.0039533,213.360472 37.2246409,216.521033 C34.3248148,218.334863 31.9732802,219.499756 30.1700371,220.015711 C28.4946559,220.495082 25.6282541,220.823178 21.5708317,221 Z" id="Fill-3"></path>
                </g>
            </g>
        </g>
    </g>
</svg>