<svg xmlns="http://www.w3.org/2000/svg" width="103" height="103">
  <path fill="none" stroke="#000" d="m5.3 70.67 10.84-4.55m70.72-29.28 10.84-4.51m0 38.34-10.84-4.545m-70.72-29.24L5.3 32.335m65.37-27.03-4.51 10.84m-29.32 70.72-4.51 10.84m0-92.4 4.514 10.84m29.25 70.72 4.58 10.84m-4.51-81.56-50.02 20.7 20.7 50.02 50.02-20.74zm-29.31 0 50.01 20.7-20.77 50.02-49.95-20.74zm14.65-14.64-14.66 14.64h-20.7v20.74l-14.64 14.62 14.64 14.62v20.74h20.7l14.66 14.64 14.59-14.64h20.77v-20.74l14.64-14.62-14.64-14.66v-20.7h-20.7zm46.2 69.17 3.8-19.17-3.8-19.17-10.84-16.19-16.19-10.84-19.17-3.8-19.17 3.8-16.19 10.84-10.84 16.19-3.8 19.17 3.8 19.17 10.84 16.19 16.19 10.84 19.17 3.8 19.17-3.8 16.19-10.84z"/>
</svg>